<?xml version="1.0" encoding="UTF-8"?> <svg xmlns="http://www.w3.org/2000/svg" width="143" height="143" viewBox="0 0 143 143" fill="none"> <circle cx="71.5" cy="71.5" r="70.5" stroke="url(#paint0_linear_115_91)" stroke-width="2"></circle> <path d="M65.8913 63.8502H94.9351M65.8913 70.8461H94.9351M65.8913 77.8433H94.9351M79.6196 51.568V48.0374C79.6196 45.9182 77.9017 44.2002 75.7823 44.2002H45.4374C43.3181 44.2002 41.6001 45.9182 41.6001 48.0374V67.1187C41.6001 69.2213 43.2913 70.928 45.3876 70.9546V79.8697C45.3876 80.4289 46.0933 80.6741 46.4399 80.2352L53.3084 71.5397C53.5528 71.2302 53.9069 71.0267 54.2974 70.9712M62.9837 55.8465H97.8419C100.276 55.8465 102.25 57.8201 102.25 60.2546V82.1738C102.25 84.589 100.307 86.5496 97.899 86.5804V96.8213C97.899 97.4636 97.0883 97.7451 96.6902 97.2411L88.8002 87.2523C88.6351 87.0432 88.4247 86.8743 88.185 86.7582C87.9453 86.6421 87.6824 86.5817 87.416 86.5817H62.9837C60.5492 86.5817 58.5756 84.6082 58.5756 82.1738V60.2546C58.5756 57.8201 60.5492 55.8465 62.9837 55.8465Z" stroke="url(#paint1_linear_115_91)" stroke-width="2" stroke-miterlimit="10" stroke-linecap="round" stroke-linejoin="round"></path> <circle cx="122" cy="122" r="21" fill="#23232F"></circle> <path d="M121.648 133V114.52L122.852 115.836H117.224V113.4H124.42V133H121.648Z" fill="#2E58A6"></path> <path d="M121.648 133V114.52L122.852 115.836H117.224V113.4H124.42V133H121.648Z" fill="url(#paint2_linear_115_91)"></path> <defs> <linearGradient id="paint0_linear_115_91" x1="44.8212" y1="97.2855" x2="44.8212" y2="0.00109014" gradientUnits="userSpaceOnUse"> <stop stop-color="#B50E30"></stop> <stop offset="1" stop-color="#EA1343"></stop> </linearGradient> <linearGradient id="paint1_linear_115_91" x1="60.6099" y1="80.4609" x2="60.6099" y2="44.2006" gradientUnits="userSpaceOnUse"> <stop stop-color="#B50E30"></stop> <stop offset="1" stop-color="#EA1343"></stop> </linearGradient> <linearGradient id="paint2_linear_115_91" x1="119.48" y1="126.735" x2="119.48" y2="113.401" gradientUnits="userSpaceOnUse"> <stop stop-color="#B50E30"></stop> <stop offset="1" stop-color="#EA1343"></stop> </linearGradient> </defs> </svg> 