<?xml version="1.0" encoding="UTF-8"?> <svg xmlns="http://www.w3.org/2000/svg" width="143" height="143" viewBox="0 0 143 143" fill="none"> <circle cx="71.5" cy="71.5" r="70.5" stroke="url(#paint0_linear_115_232)" stroke-width="2"></circle> <path d="M67.6587 71.1273C67.2596 71.1273 66.9309 71.2351 66.9075 71.5688C66.8723 72.0211 66.7784 72.7209 65.7103 72.7209C64.9003 72.7209 64.4543 72.3226 64.4543 71.4827V68.4785C64.4542 67.6387 64.9002 67.2403 65.6867 67.2403C66.8017 67.2403 66.8839 67.9725 66.9074 68.3062C66.9191 68.6292 67.2361 68.7477 67.6704 68.7477C68.1868 68.7477 68.4333 68.6185 68.4333 68.0586C68.4333 66.8096 67.2713 66.0128 65.6398 66.0128C64.1608 66.0128 62.9284 66.6804 62.9284 68.4785V71.4827C62.9284 73.2809 64.1491 73.9485 65.628 73.9485C67.2713 73.9485 68.4333 73.1194 68.4333 71.8165C68.4333 71.2673 68.1869 71.1273 67.6587 71.1273ZM72.4004 66.0128H70.0411C69.689 66.0128 69.466 66.2173 69.466 66.4435V73.4425C69.466 73.7332 69.8416 73.884 70.2289 73.884C70.6044 73.884 70.9918 73.7332 70.9918 73.4425V70.9444H72.3064C73.8559 70.9444 75.0648 70.266 75.0648 68.5001V68.4355C75.0648 66.6696 73.891 66.0128 72.4004 66.0128ZM73.5389 68.6079C73.5389 69.4478 73.0693 69.8462 72.3064 69.8462H70.9918V67.2403H72.3064C73.0694 67.2403 73.5389 67.6387 73.5389 68.4786V68.6079ZM80.8395 66.0128C80.4521 66.0128 80.0766 66.142 80.0766 66.4435V71.4828C80.0766 72.3227 79.5953 72.7211 78.7855 72.7211C77.9755 72.7211 77.4943 72.3227 77.4943 71.4828V66.4435C77.4943 66.142 77.1069 66.0128 76.7313 66.0128C76.344 66.0128 75.9683 66.142 75.9683 66.4435V71.4828C75.9683 73.281 77.2008 73.9486 78.7854 73.9486C80.3582 73.9486 81.6024 73.2809 81.6024 71.4828V66.4435C81.6024 66.142 81.215 66.0128 80.8395 66.0128Z" fill="url(#paint1_linear_115_232)"></path> <path d="M52.1973 50.7C52.6749 50.7 53.062 50.3128 53.062 49.8353C53.062 49.3577 52.6749 48.9705 52.1973 48.9705C51.7197 48.9705 51.3325 49.3577 51.3325 49.8353C51.3325 50.3128 51.7197 50.7 52.1973 50.7Z" fill="url(#paint2_linear_115_232)"></path> <path d="M55.8754 50.7C56.353 50.7 56.7401 50.3128 56.7401 49.8353C56.7401 49.3577 56.353 48.9705 55.8754 48.9705C55.3978 48.9705 55.0106 49.3577 55.0106 49.8353C55.0106 50.3128 55.3978 50.7 55.8754 50.7Z" fill="url(#paint3_linear_115_232)"></path> <path d="M59.5546 50.7C60.0322 50.7 60.4193 50.3128 60.4193 49.8353C60.4193 49.3577 60.0322 48.9705 59.5546 48.9705C59.077 48.9705 58.6898 49.3577 58.6898 49.8353C58.6898 50.3128 59.077 50.7 59.5546 50.7Z" fill="url(#paint4_linear_115_232)"></path> <path d="M63.2327 50.7C63.7103 50.7 64.0975 50.3128 64.0975 49.8353C64.0975 49.3577 63.7103 48.9705 63.2327 48.9705C62.7551 48.9705 62.368 49.3577 62.368 49.8353C62.368 50.3128 62.7551 50.7 63.2327 50.7Z" fill="url(#paint5_linear_115_232)"></path> <path d="M66.9108 50.7C67.3884 50.7 67.7756 50.3128 67.7756 49.8353C67.7756 49.3577 67.3884 48.9705 66.9108 48.9705C66.4333 48.9705 66.0461 49.3577 66.0461 49.8353C66.0461 50.3128 66.4333 50.7 66.9108 50.7Z" fill="url(#paint6_linear_115_232)"></path> <path d="M70.589 50.7C71.0666 50.7 71.4537 50.3128 71.4537 49.8353C71.4537 49.3577 71.0666 48.9705 70.589 48.9705C70.1114 48.9705 69.7242 49.3577 69.7242 49.8353C69.7242 50.3128 70.1114 50.7 70.589 50.7Z" fill="url(#paint7_linear_115_232)"></path> <path d="M74.2671 50.7C74.7447 50.7 75.1318 50.3128 75.1318 49.8353C75.1318 49.3577 74.7447 48.9705 74.2671 48.9705C73.7895 48.9705 73.4023 49.3577 73.4023 49.8353C73.4023 50.3128 73.7895 50.7 74.2671 50.7Z" fill="url(#paint8_linear_115_232)"></path> <path d="M77.9452 50.7C78.4228 50.7 78.81 50.3128 78.81 49.8353C78.81 49.3577 78.4228 48.9705 77.9452 48.9705C77.4676 48.9705 77.0805 49.3577 77.0805 49.8353C77.0805 50.3128 77.4676 50.7 77.9452 50.7Z" fill="url(#paint9_linear_115_232)"></path> <path d="M81.6244 50.7C82.102 50.7 82.4892 50.3128 82.4892 49.8353C82.4892 49.3577 82.102 48.9705 81.6244 48.9705C81.1468 48.9705 80.7597 49.3577 80.7597 49.8353C80.7597 50.3128 81.1468 50.7 81.6244 50.7Z" fill="url(#paint10_linear_115_232)"></path> <path d="M85.3025 50.7C85.7801 50.7 86.1673 50.3128 86.1673 49.8353C86.1673 49.3577 85.7801 48.9705 85.3025 48.9705C84.825 48.9705 84.4378 49.3577 84.4378 49.8353C84.4378 50.3128 84.825 50.7 85.3025 50.7Z" fill="url(#paint11_linear_115_232)"></path> <path d="M88.9807 50.7C89.4583 50.7 89.8454 50.3128 89.8454 49.8353C89.8454 49.3577 89.4583 48.9705 88.9807 48.9705C88.5031 48.9705 88.1159 49.3577 88.1159 49.8353C88.1159 50.3128 88.5031 50.7 88.9807 50.7Z" fill="url(#paint12_linear_115_232)"></path> <path d="M92.6588 50.7C93.1364 50.7 93.5235 50.3128 93.5235 49.8353C93.5235 49.3577 93.1364 48.9705 92.6588 48.9705C92.1812 48.9705 91.794 49.3577 91.794 49.8353C91.794 50.3128 92.1812 50.7 92.6588 50.7Z" fill="url(#paint13_linear_115_232)"></path> <path d="M52.1973 54.4254C52.6749 54.4254 53.062 54.0382 53.062 53.5606C53.062 53.0831 52.6749 52.6959 52.1973 52.6959C51.7197 52.6959 51.3325 53.0831 51.3325 53.5606C51.3325 54.0382 51.7197 54.4254 52.1973 54.4254Z" fill="url(#paint14_linear_115_232)"></path> <path d="M55.8754 54.4254C56.353 54.4254 56.7401 54.0382 56.7401 53.5606C56.7401 53.0831 56.353 52.6959 55.8754 52.6959C55.3978 52.6959 55.0106 53.0831 55.0106 53.5606C55.0106 54.0382 55.3978 54.4254 55.8754 54.4254Z" fill="url(#paint15_linear_115_232)"></path> <path d="M59.5546 54.4254C60.0322 54.4254 60.4193 54.0382 60.4193 53.5606C60.4193 53.0831 60.0322 52.6959 59.5546 52.6959C59.077 52.6959 58.6898 53.0831 58.6898 53.5606C58.6898 54.0382 59.077 54.4254 59.5546 54.4254Z" fill="url(#paint16_linear_115_232)"></path> <path d="M63.2327 54.4254C63.7103 54.4254 64.0975 54.0382 64.0975 53.5606C64.0975 53.0831 63.7103 52.6959 63.2327 52.6959C62.7551 52.6959 62.368 53.0831 62.368 53.5606C62.368 54.0382 62.7551 54.4254 63.2327 54.4254Z" fill="url(#paint17_linear_115_232)"></path> <path d="M66.9108 54.4254C67.3884 54.4254 67.7756 54.0382 67.7756 53.5606C67.7756 53.0831 67.3884 52.6959 66.9108 52.6959C66.4333 52.6959 66.0461 53.0831 66.0461 53.5606C66.0461 54.0382 66.4333 54.4254 66.9108 54.4254Z" fill="url(#paint18_linear_115_232)"></path> <path d="M70.589 54.4254C71.0666 54.4254 71.4537 54.0382 71.4537 53.5606C71.4537 53.0831 71.0666 52.6959 70.589 52.6959C70.1114 52.6959 69.7242 53.0831 69.7242 53.5606C69.7242 54.0382 70.1114 54.4254 70.589 54.4254Z" fill="url(#paint19_linear_115_232)"></path> <path d="M74.2671 54.4254C74.7447 54.4254 75.1318 54.0382 75.1318 53.5606C75.1318 53.0831 74.7447 52.6959 74.2671 52.6959C73.7895 52.6959 73.4023 53.0831 73.4023 53.5606C73.4023 54.0382 73.7895 54.4254 74.2671 54.4254Z" fill="url(#paint20_linear_115_232)"></path> <path d="M77.9452 54.4254C78.4228 54.4254 78.81 54.0382 78.81 53.5606C78.81 53.0831 78.4228 52.6959 77.9452 52.6959C77.4676 52.6959 77.0805 53.0831 77.0805 53.5606C77.0805 54.0382 77.4676 54.4254 77.9452 54.4254Z" fill="url(#paint21_linear_115_232)"></path> <path d="M81.6244 54.4254C82.102 54.4254 82.4892 54.0382 82.4892 53.5606C82.4892 53.0831 82.102 52.6959 81.6244 52.6959C81.1468 52.6959 80.7597 53.0831 80.7597 53.5606C80.7597 54.0382 81.1468 54.4254 81.6244 54.4254Z" fill="url(#paint22_linear_115_232)"></path> <path d="M85.3025 54.4254C85.7801 54.4254 86.1673 54.0382 86.1673 53.5606C86.1673 53.0831 85.7801 52.6959 85.3025 52.6959C84.825 52.6959 84.4378 53.0831 84.4378 53.5606C84.4378 54.0382 84.825 54.4254 85.3025 54.4254Z" fill="url(#paint23_linear_115_232)"></path> <path d="M88.9807 54.4254C89.4583 54.4254 89.8454 54.0382 89.8454 53.5606C89.8454 53.0831 89.4583 52.6959 88.9807 52.6959C88.5031 52.6959 88.1159 53.0831 88.1159 53.5606C88.1159 54.0382 88.5031 54.4254 88.9807 54.4254Z" fill="url(#paint24_linear_115_232)"></path> <path d="M92.6588 54.4254C93.1364 54.4254 93.5235 54.0382 93.5235 53.5606C93.5235 53.0831 93.1364 52.6959 92.6588 52.6959C92.1812 52.6959 91.794 53.0831 91.794 53.5606C91.794 54.0382 92.1812 54.4254 92.6588 54.4254Z" fill="url(#paint25_linear_115_232)"></path> <path d="M52.1973 58.1841C52.6749 58.1841 53.062 57.7969 53.062 57.3193C53.062 56.8418 52.6749 56.4546 52.1973 56.4546C51.7197 56.4546 51.3325 56.8418 51.3325 57.3193C51.3325 57.7969 51.7197 58.1841 52.1973 58.1841Z" fill="url(#paint26_linear_115_232)"></path> <path d="M55.8754 58.1841C56.353 58.1841 56.7401 57.7969 56.7401 57.3193C56.7401 56.8418 56.353 56.4546 55.8754 56.4546C55.3978 56.4546 55.0106 56.8418 55.0106 57.3193C55.0106 57.7969 55.3978 58.1841 55.8754 58.1841Z" fill="url(#paint27_linear_115_232)"></path> <path d="M88.9807 58.1841C89.4583 58.1841 89.8454 57.7969 89.8454 57.3193C89.8454 56.8418 89.4583 56.4546 88.9807 56.4546C88.5031 56.4546 88.1159 56.8418 88.1159 57.3193C88.1159 57.7969 88.5031 58.1841 88.9807 58.1841Z" fill="url(#paint28_linear_115_232)"></path> <path d="M92.6588 58.1841C93.1364 58.1841 93.5235 57.7969 93.5235 57.3193C93.5235 56.8418 93.1364 56.4546 92.6588 56.4546C92.1812 56.4546 91.794 56.8418 91.794 57.3193C91.794 57.7969 92.1812 58.1841 92.6588 58.1841Z" fill="url(#paint29_linear_115_232)"></path> <path d="M52.1973 61.9095C52.6749 61.9095 53.062 61.5223 53.062 61.0447C53.062 60.5671 52.6749 60.18 52.1973 60.18C51.7197 60.18 51.3325 60.5671 51.3325 61.0447C51.3325 61.5223 51.7197 61.9095 52.1973 61.9095Z" fill="url(#paint30_linear_115_232)"></path> <path d="M55.8754 61.9095C56.353 61.9095 56.7401 61.5223 56.7401 61.0447C56.7401 60.5671 56.353 60.18 55.8754 60.18C55.3978 60.18 55.0106 60.5671 55.0106 61.0447C55.0106 61.5223 55.3978 61.9095 55.8754 61.9095Z" fill="url(#paint31_linear_115_232)"></path> <path d="M88.9807 61.9095C89.4583 61.9095 89.8454 61.5223 89.8454 61.0447C89.8454 60.5671 89.4583 60.18 88.9807 60.18C88.5031 60.18 88.1159 60.5671 88.1159 61.0447C88.1159 61.5223 88.5031 61.9095 88.9807 61.9095Z" fill="url(#paint32_linear_115_232)"></path> <path d="M92.6588 61.9095C93.1364 61.9095 93.5235 61.5223 93.5235 61.0447C93.5235 60.5671 93.1364 60.18 92.6588 60.18C92.1812 60.18 91.794 60.5671 91.794 61.0447C91.794 61.5223 92.1812 61.9095 92.6588 61.9095Z" fill="url(#paint33_linear_115_232)"></path> <path d="M52.1973 65.6682C52.6749 65.6682 53.062 65.281 53.062 64.8034C53.062 64.3258 52.6749 63.9387 52.1973 63.9387C51.7197 63.9387 51.3325 64.3258 51.3325 64.8034C51.3325 65.281 51.7197 65.6682 52.1973 65.6682Z" fill="url(#paint34_linear_115_232)"></path> <path d="M55.8754 65.6682C56.353 65.6682 56.7401 65.281 56.7401 64.8034C56.7401 64.3258 56.353 63.9387 55.8754 63.9387C55.3978 63.9387 55.0106 64.3258 55.0106 64.8034C55.0106 65.281 55.3978 65.6682 55.8754 65.6682Z" fill="url(#paint35_linear_115_232)"></path> <path d="M88.9807 65.6682C89.4583 65.6682 89.8454 65.281 89.8454 64.8034C89.8454 64.3258 89.4583 63.9387 88.9807 63.9387C88.5031 63.9387 88.1159 64.3258 88.1159 64.8034C88.1159 65.281 88.5031 65.6682 88.9807 65.6682Z" fill="url(#paint36_linear_115_232)"></path> <path d="M92.6588 65.6682C93.1364 65.6682 93.5235 65.281 93.5235 64.8034C93.5235 64.3258 93.1364 63.9387 92.6588 63.9387C92.1812 63.9387 91.794 64.3258 91.794 64.8034C91.794 65.281 92.1812 65.6682 92.6588 65.6682Z" fill="url(#paint37_linear_115_232)"></path> <path d="M52.1973 69.3936C52.6749 69.3936 53.062 69.0064 53.062 68.5288C53.062 68.0512 52.6749 67.6641 52.1973 67.6641C51.7197 67.6641 51.3325 68.0512 51.3325 68.5288C51.3325 69.0064 51.7197 69.3936 52.1973 69.3936Z" fill="url(#paint38_linear_115_232)"></path> <path d="M55.8754 69.3936C56.353 69.3936 56.7401 69.0064 56.7401 68.5288C56.7401 68.0512 56.353 67.6641 55.8754 67.6641C55.3978 67.6641 55.0106 68.0512 55.0106 68.5288C55.0106 69.0064 55.3978 69.3936 55.8754 69.3936Z" fill="url(#paint39_linear_115_232)"></path> <path d="M88.9807 69.3936C89.4583 69.3936 89.8454 69.0064 89.8454 68.5288C89.8454 68.0512 89.4583 67.6641 88.9807 67.6641C88.5031 67.6641 88.1159 68.0512 88.1159 68.5288C88.1159 69.0064 88.5031 69.3936 88.9807 69.3936Z" fill="url(#paint40_linear_115_232)"></path> <path d="M92.6588 69.3936C93.1364 69.3936 93.5235 69.0064 93.5235 68.5288C93.5235 68.0512 93.1364 67.6641 92.6588 67.6641C92.1812 67.6641 91.794 68.0512 91.794 68.5288C91.794 69.0064 92.1812 69.3936 92.6588 69.3936Z" fill="url(#paint41_linear_115_232)"></path> <path d="M52.1973 73.1522C52.6749 73.1522 53.062 72.7651 53.062 72.2875C53.062 71.8099 52.6749 71.4228 52.1973 71.4228C51.7197 71.4228 51.3325 71.8099 51.3325 72.2875C51.3325 72.7651 51.7197 73.1522 52.1973 73.1522Z" fill="url(#paint42_linear_115_232)"></path> <path d="M55.8754 73.1522C56.353 73.1522 56.7401 72.7651 56.7401 72.2875C56.7401 71.8099 56.353 71.4228 55.8754 71.4228C55.3978 71.4228 55.0106 71.8099 55.0106 72.2875C55.0106 72.7651 55.3978 73.1522 55.8754 73.1522Z" fill="url(#paint43_linear_115_232)"></path> <path d="M88.9807 73.1522C89.4583 73.1522 89.8454 72.7651 89.8454 72.2875C89.8454 71.8099 89.4583 71.4228 88.9807 71.4228C88.5031 71.4228 88.1159 71.8099 88.1159 72.2875C88.1159 72.7651 88.5031 73.1522 88.9807 73.1522Z" fill="url(#paint44_linear_115_232)"></path> <path d="M92.6588 73.1522C93.1364 73.1522 93.5235 72.7651 93.5235 72.2875C93.5235 71.8099 93.1364 71.4228 92.6588 71.4228C92.1812 71.4228 91.794 71.8099 91.794 72.2875C91.794 72.7651 92.1812 73.1522 92.6588 73.1522Z" fill="url(#paint45_linear_115_232)"></path> <path d="M52.1973 76.8776C52.6749 76.8776 53.062 76.4905 53.062 76.0129C53.062 75.5353 52.6749 75.1481 52.1973 75.1481C51.7197 75.1481 51.3325 75.5353 51.3325 76.0129C51.3325 76.4905 51.7197 76.8776 52.1973 76.8776Z" fill="url(#paint46_linear_115_232)"></path> <path d="M55.8754 76.8776C56.353 76.8776 56.7401 76.4905 56.7401 76.0129C56.7401 75.5353 56.353 75.1481 55.8754 75.1481C55.3978 75.1481 55.0106 75.5353 55.0106 76.0129C55.0106 76.4905 55.3978 76.8776 55.8754 76.8776Z" fill="url(#paint47_linear_115_232)"></path> <path d="M88.9807 76.8776C89.4583 76.8776 89.8454 76.4905 89.8454 76.0129C89.8454 75.5353 89.4583 75.1481 88.9807 75.1481C88.5031 75.1481 88.1159 75.5353 88.1159 76.0129C88.1159 76.4905 88.5031 76.8776 88.9807 76.8776Z" fill="url(#paint48_linear_115_232)"></path> <path d="M92.6588 76.8776C93.1364 76.8776 93.5235 76.4905 93.5235 76.0129C93.5235 75.5353 93.1364 75.1481 92.6588 75.1481C92.1812 75.1481 91.794 75.5353 91.794 76.0129C91.794 76.4905 92.1812 76.8776 92.6588 76.8776Z" fill="url(#paint49_linear_115_232)"></path> <path d="M52.1973 80.6363C52.6749 80.6363 53.062 80.2492 53.062 79.7716C53.062 79.294 52.6749 78.9068 52.1973 78.9068C51.7197 78.9068 51.3325 79.294 51.3325 79.7716C51.3325 80.2492 51.7197 80.6363 52.1973 80.6363Z" fill="url(#paint50_linear_115_232)"></path> <path d="M55.8754 80.6363C56.353 80.6363 56.7401 80.2492 56.7401 79.7716C56.7401 79.294 56.353 78.9068 55.8754 78.9068C55.3978 78.9068 55.0106 79.294 55.0106 79.7716C55.0106 80.2492 55.3978 80.6363 55.8754 80.6363Z" fill="url(#paint51_linear_115_232)"></path> <path d="M88.9807 80.6363C89.4583 80.6363 89.8454 80.2492 89.8454 79.7716C89.8454 79.294 89.4583 78.9068 88.9807 78.9068C88.5031 78.9068 88.1159 79.294 88.1159 79.7716C88.1159 80.2492 88.5031 80.6363 88.9807 80.6363Z" fill="url(#paint52_linear_115_232)"></path> <path d="M92.6588 80.6363C93.1364 80.6363 93.5235 80.2492 93.5235 79.7716C93.5235 79.294 93.1364 78.9068 92.6588 78.9068C92.1812 78.9068 91.794 79.294 91.794 79.7716C91.794 80.2492 92.1812 80.6363 92.6588 80.6363Z" fill="url(#paint53_linear_115_232)"></path> <path d="M52.1973 84.3606C52.6749 84.3606 53.062 83.9735 53.062 83.4959C53.062 83.0183 52.6749 82.6312 52.1973 82.6312C51.7197 82.6312 51.3325 83.0183 51.3325 83.4959C51.3325 83.9735 51.7197 84.3606 52.1973 84.3606Z" fill="url(#paint54_linear_115_232)"></path> <path d="M55.8754 84.3606C56.353 84.3606 56.7401 83.9735 56.7401 83.4959C56.7401 83.0183 56.353 82.6312 55.8754 82.6312C55.3978 82.6312 55.0106 83.0183 55.0106 83.4959C55.0106 83.9735 55.3978 84.3606 55.8754 84.3606Z" fill="url(#paint55_linear_115_232)"></path> <path d="M88.9807 84.3606C89.4583 84.3606 89.8454 83.9735 89.8454 83.4959C89.8454 83.0183 89.4583 82.6312 88.9807 82.6312C88.5031 82.6312 88.1159 83.0183 88.1159 83.4959C88.1159 83.9735 88.5031 84.3606 88.9807 84.3606Z" fill="url(#paint56_linear_115_232)"></path> <path d="M92.6588 84.3606C93.1364 84.3606 93.5235 83.9735 93.5235 83.4959C93.5235 83.0183 93.1364 82.6312 92.6588 82.6312C92.1812 82.6312 91.794 83.0183 91.794 83.4959C91.794 83.9735 92.1812 84.3606 92.6588 84.3606Z" fill="url(#paint57_linear_115_232)"></path> <path d="M52.1973 88.1204C52.6749 88.1204 53.062 87.7333 53.062 87.2557C53.062 86.7781 52.6749 86.3909 52.1973 86.3909C51.7197 86.3909 51.3325 86.7781 51.3325 87.2557C51.3325 87.7333 51.7197 88.1204 52.1973 88.1204Z" fill="url(#paint58_linear_115_232)"></path> <path d="M55.8754 88.1204C56.353 88.1204 56.7401 87.7333 56.7401 87.2557C56.7401 86.7781 56.353 86.3909 55.8754 86.3909C55.3978 86.3909 55.0106 86.7781 55.0106 87.2557C55.0106 87.7333 55.3978 88.1204 55.8754 88.1204Z" fill="url(#paint59_linear_115_232)"></path> <path d="M59.5546 88.1204C60.0322 88.1204 60.4193 87.7333 60.4193 87.2557C60.4193 86.7781 60.0322 86.3909 59.5546 86.3909C59.077 86.3909 58.6898 86.7781 58.6898 87.2557C58.6898 87.7333 59.077 88.1204 59.5546 88.1204Z" fill="url(#paint60_linear_115_232)"></path> <path d="M63.2327 88.1204C63.7103 88.1204 64.0975 87.7333 64.0975 87.2557C64.0975 86.7781 63.7103 86.3909 63.2327 86.3909C62.7551 86.3909 62.368 86.7781 62.368 87.2557C62.368 87.7333 62.7551 88.1204 63.2327 88.1204Z" fill="url(#paint61_linear_115_232)"></path> <path d="M66.9108 88.1204C67.3884 88.1204 67.7756 87.7333 67.7756 87.2557C67.7756 86.7781 67.3884 86.3909 66.9108 86.3909C66.4333 86.3909 66.0461 86.7781 66.0461 87.2557C66.0461 87.7333 66.4333 88.1204 66.9108 88.1204Z" fill="url(#paint62_linear_115_232)"></path> <path d="M70.589 88.1204C71.0666 88.1204 71.4537 87.7333 71.4537 87.2557C71.4537 86.7781 71.0666 86.3909 70.589 86.3909C70.1114 86.3909 69.7242 86.7781 69.7242 87.2557C69.7242 87.7333 70.1114 88.1204 70.589 88.1204Z" fill="url(#paint63_linear_115_232)"></path> <path d="M74.2671 88.1204C74.7447 88.1204 75.1318 87.7333 75.1318 87.2557C75.1318 86.7781 74.7447 86.3909 74.2671 86.3909C73.7895 86.3909 73.4023 86.7781 73.4023 87.2557C73.4023 87.7333 73.7895 88.1204 74.2671 88.1204Z" fill="url(#paint64_linear_115_232)"></path> <path d="M77.9452 88.1204C78.4228 88.1204 78.81 87.7333 78.81 87.2557C78.81 86.7781 78.4228 86.3909 77.9452 86.3909C77.4676 86.3909 77.0805 86.7781 77.0805 87.2557C77.0805 87.7333 77.4676 88.1204 77.9452 88.1204Z" fill="url(#paint65_linear_115_232)"></path> <path d="M81.6244 88.1204C82.102 88.1204 82.4892 87.7333 82.4892 87.2557C82.4892 86.7781 82.102 86.3909 81.6244 86.3909C81.1468 86.3909 80.7597 86.7781 80.7597 87.2557C80.7597 87.7333 81.1468 88.1204 81.6244 88.1204Z" fill="url(#paint66_linear_115_232)"></path> <path d="M85.3025 88.1204C85.7801 88.1204 86.1673 87.7333 86.1673 87.2557C86.1673 86.7781 85.7801 86.3909 85.3025 86.3909C84.825 86.3909 84.4378 86.7781 84.4378 87.2557C84.4378 87.7333 84.825 88.1204 85.3025 88.1204Z" fill="url(#paint67_linear_115_232)"></path> <path d="M88.9807 88.1204C89.4583 88.1204 89.8454 87.7333 89.8454 87.2557C89.8454 86.7781 89.4583 86.3909 88.9807 86.3909C88.5031 86.3909 88.1159 86.7781 88.1159 87.2557C88.1159 87.7333 88.5031 88.1204 88.9807 88.1204Z" fill="url(#paint68_linear_115_232)"></path> <path d="M92.6588 88.1204C93.1364 88.1204 93.5235 87.7333 93.5235 87.2557C93.5235 86.7781 93.1364 86.3909 92.6588 86.3909C92.1812 86.3909 91.794 86.7781 91.794 87.2557C91.794 87.7333 92.1812 88.1204 92.6588 88.1204Z" fill="url(#paint69_linear_115_232)"></path> <path d="M52.1973 91.8447C52.6749 91.8447 53.062 91.4576 53.062 90.98C53.062 90.5024 52.6749 90.1152 52.1973 90.1152C51.7197 90.1152 51.3325 90.5024 51.3325 90.98C51.3325 91.4576 51.7197 91.8447 52.1973 91.8447Z" fill="url(#paint70_linear_115_232)"></path> <path d="M55.8754 91.8447C56.353 91.8447 56.7401 91.4576 56.7401 90.98C56.7401 90.5024 56.353 90.1152 55.8754 90.1152C55.3978 90.1152 55.0106 90.5024 55.0106 90.98C55.0106 91.4576 55.3978 91.8447 55.8754 91.8447Z" fill="url(#paint71_linear_115_232)"></path> <path d="M59.5546 91.8447C60.0322 91.8447 60.4193 91.4576 60.4193 90.98C60.4193 90.5024 60.0322 90.1152 59.5546 90.1152C59.077 90.1152 58.6898 90.5024 58.6898 90.98C58.6898 91.4576 59.077 91.8447 59.5546 91.8447Z" fill="url(#paint72_linear_115_232)"></path> <path d="M63.2327 91.8447C63.7103 91.8447 64.0975 91.4576 64.0975 90.98C64.0975 90.5024 63.7103 90.1152 63.2327 90.1152C62.7551 90.1152 62.368 90.5024 62.368 90.98C62.368 91.4576 62.7551 91.8447 63.2327 91.8447Z" fill="url(#paint73_linear_115_232)"></path> <path d="M66.9108 91.8447C67.3884 91.8447 67.7756 91.4576 67.7756 90.98C67.7756 90.5024 67.3884 90.1152 66.9108 90.1152C66.4333 90.1152 66.0461 90.5024 66.0461 90.98C66.0461 91.4576 66.4333 91.8447 66.9108 91.8447Z" fill="url(#paint74_linear_115_232)"></path> <path d="M70.589 91.8447C71.0666 91.8447 71.4537 91.4576 71.4537 90.98C71.4537 90.5024 71.0666 90.1152 70.589 90.1152C70.1114 90.1152 69.7242 90.5024 69.7242 90.98C69.7242 91.4576 70.1114 91.8447 70.589 91.8447Z" fill="url(#paint75_linear_115_232)"></path> <path d="M74.2671 91.8447C74.7447 91.8447 75.1318 91.4576 75.1318 90.98C75.1318 90.5024 74.7447 90.1152 74.2671 90.1152C73.7895 90.1152 73.4023 90.5024 73.4023 90.98C73.4023 91.4576 73.7895 91.8447 74.2671 91.8447Z" fill="url(#paint76_linear_115_232)"></path> <path d="M77.9452 91.8447C78.4228 91.8447 78.81 91.4576 78.81 90.98C78.81 90.5024 78.4228 90.1152 77.9452 90.1152C77.4676 90.1152 77.0805 90.5024 77.0805 90.98C77.0805 91.4576 77.4676 91.8447 77.9452 91.8447Z" fill="url(#paint77_linear_115_232)"></path> <path d="M81.6244 91.8447C82.102 91.8447 82.4892 91.4576 82.4892 90.98C82.4892 90.5024 82.102 90.1152 81.6244 90.1152C81.1468 90.1152 80.7597 90.5024 80.7597 90.98C80.7597 91.4576 81.1468 91.8447 81.6244 91.8447Z" fill="url(#paint78_linear_115_232)"></path> <path d="M85.3025 91.8447C85.7801 91.8447 86.1673 91.4576 86.1673 90.98C86.1673 90.5024 85.7801 90.1152 85.3025 90.1152C84.825 90.1152 84.4378 90.5024 84.4378 90.98C84.4378 91.4576 84.825 91.8447 85.3025 91.8447Z" fill="url(#paint79_linear_115_232)"></path> <path d="M88.9807 91.8447C89.4583 91.8447 89.8454 91.4576 89.8454 90.98C89.8454 90.5024 89.4583 90.1152 88.9807 90.1152C88.5031 90.1152 88.1159 90.5024 88.1159 90.98C88.1159 91.4576 88.5031 91.8447 88.9807 91.8447Z" fill="url(#paint80_linear_115_232)"></path> <path d="M92.6588 91.8447C93.1364 91.8447 93.5235 91.4576 93.5235 90.98C93.5235 90.5024 93.1364 90.1152 92.6588 90.1152C92.1812 90.1152 91.794 90.5024 91.794 90.98C91.794 91.4576 92.1812 91.8447 92.6588 91.8447Z" fill="url(#paint81_linear_115_232)"></path> <path d="M85.0036 56.1276H59.9965C58.966 56.1276 58.1277 56.9659 58.1277 57.9964V68.3516C58.1277 68.5652 58.2126 68.7702 58.3637 68.9213C58.5148 69.0723 58.7197 69.1572 58.9334 69.1572C59.147 69.1572 59.352 69.0723 59.5031 68.9213C59.6542 68.7702 59.739 68.5652 59.739 68.3516V57.9964C59.7391 57.9282 59.7663 57.8627 59.8145 57.8144C59.8628 57.7662 59.9283 57.739 59.9965 57.7389H85.0036C85.0718 57.739 85.1373 57.7662 85.1856 57.8144C85.2338 57.8627 85.261 57.9282 85.2611 57.9964V68.3516C85.2611 68.5652 85.346 68.7702 85.497 68.9213C85.6481 69.0723 85.8531 69.1572 86.0667 69.1572C86.2804 69.1572 86.4853 69.0723 86.6364 68.9213C86.7875 68.7702 86.8724 68.5652 86.8724 68.3516V57.9964C86.8724 56.9659 86.0341 56.1276 85.0036 56.1276ZM86.0667 71.8428C85.8531 71.8428 85.6481 71.9277 85.497 72.0787C85.346 72.2298 85.2611 72.4348 85.2611 72.6484V77.567C85.2605 77.7625 85.1825 77.9499 85.044 78.088L80.04 83.0485C79.9722 83.1161 79.8916 83.1697 79.803 83.2062C79.7143 83.2427 79.6194 83.2613 79.5236 83.2611H59.9964C59.9282 83.261 59.8627 83.2338 59.8144 83.1856C59.7662 83.1373 59.739 83.0718 59.7389 83.0036V72.6484C59.7389 72.4348 59.654 72.2298 59.503 72.0787C59.3519 71.9277 59.1469 71.8428 58.9333 71.8428C58.7196 71.8428 58.5147 71.9277 58.3636 72.0787C58.2125 72.2298 58.1276 72.4348 58.1276 72.6484V83.0036C58.1276 84.0341 58.966 84.8724 59.9964 84.8724H79.5236C79.8299 84.8732 80.1334 84.8136 80.4167 84.6969C80.6999 84.5803 80.9574 84.409 81.1744 84.1927L86.1784 79.2322C86.6211 78.791 86.8707 78.1921 86.8724 77.567V72.6484C86.8724 72.4348 86.7875 72.2298 86.6364 72.0787C86.4853 71.9277 86.2804 71.8428 86.0667 71.8428Z" fill="url(#paint82_linear_115_232)"></path> <path d="M99.1943 58.7711C99.408 58.7711 99.6129 58.6863 99.764 58.5352C99.9151 58.3841 100 58.1792 100 57.9655C100 57.7518 99.9151 57.5469 99.764 57.3958C99.6129 57.2447 99.408 57.1598 99.1943 57.1598H96.8763V52.5039H99.1943C99.408 52.5039 99.6129 52.4191 99.764 52.268C99.9151 52.1169 100 51.9119 100 51.6983C100 51.4846 99.9151 51.2797 99.764 51.1286C99.6129 50.9775 99.408 50.8926 99.1943 50.8926H96.8763V49.3078C96.8763 47.5521 95.4479 46.1237 93.6922 46.1237H92.1074V43.8057C92.1074 43.592 92.0225 43.3871 91.8714 43.236C91.7203 43.0849 91.5154 43 91.3017 43C91.0881 43 90.8831 43.0849 90.732 43.236C90.5809 43.3871 90.4961 43.592 90.4961 43.8057V46.1237H85.8402V43.8057C85.8402 43.592 85.7553 43.3871 85.6042 43.236C85.4531 43.0849 85.2482 43 85.0345 43C84.8208 43 84.6159 43.0849 84.4648 43.236C84.3137 43.3871 84.2289 43.592 84.2289 43.8057V46.1237H79.5729V43.8057C79.5729 43.592 79.488 43.3871 79.3369 43.236C79.1858 43.0849 78.9809 43 78.7672 43C78.5535 43 78.3486 43.0849 78.1975 43.236C78.0464 43.3871 77.9615 43.592 77.9615 43.8057V46.1237H73.3057V43.8057C73.3057 43.592 73.2208 43.3871 73.0697 43.236C72.9186 43.0849 72.7137 43 72.5 43C72.2863 43 72.0814 43.0849 71.9303 43.236C71.7792 43.3871 71.6943 43.592 71.6943 43.8057V46.1237H67.0385V43.8057C67.0385 43.592 66.9536 43.3871 66.8025 43.236C66.6514 43.0849 66.4465 43 66.2328 43C66.0191 43 65.8142 43.0849 65.6631 43.236C65.512 43.3871 65.4271 43.592 65.4271 43.8057V46.1237H60.7711V43.8057C60.7711 43.592 60.6863 43.3871 60.5352 43.236C60.3841 43.0849 60.1792 43 59.9655 43C59.7518 43 59.5469 43.0849 59.3958 43.236C59.2447 43.3871 59.1598 43.592 59.1598 43.8057V46.1237H54.5039V43.8057C54.5039 43.592 54.4191 43.3871 54.268 43.236C54.1169 43.0849 53.9119 43 53.6983 43C53.4846 43 53.2797 43.0849 53.1286 43.236C52.9775 43.3871 52.8926 43.592 52.8926 43.8057V46.1237H51.3078C49.5521 46.1237 48.1237 47.5521 48.1237 49.3078V50.8926H45.8057C45.592 50.8926 45.3871 50.9775 45.236 51.1286C45.0849 51.2797 45 51.4846 45 51.6983C45 51.9119 45.0849 52.1169 45.236 52.268C45.3871 52.4191 45.592 52.5039 45.8057 52.5039H48.1237V57.1598H45.8057C45.592 57.1598 45.3871 57.2447 45.236 57.3958C45.0849 57.5469 45 57.7518 45 57.9655C45 58.1792 45.0849 58.3841 45.236 58.5352C45.3871 58.6863 45.592 58.7711 45.8057 58.7711H48.1237V63.4271H45.8057C45.592 63.4271 45.3871 63.512 45.236 63.6631C45.0849 63.8142 45 64.0191 45 64.2328C45 64.4465 45.0849 64.6514 45.236 64.8025C45.3871 64.9536 45.592 65.0385 45.8057 65.0385H48.1237V69.6943H45.8057C45.592 69.6943 45.3871 69.7792 45.236 69.9303C45.0849 70.0814 45 70.2863 45 70.5C45 70.7137 45.0849 70.9186 45.236 71.0697C45.3871 71.2208 45.592 71.3057 45.8057 71.3057H48.1237V75.9615H45.8057C45.592 75.9615 45.3871 76.0464 45.236 76.1975C45.0849 76.3486 45 76.5535 45 76.7672C45 76.9809 45.0849 77.1858 45.236 77.3369C45.3871 77.488 45.592 77.5729 45.8057 77.5729H48.1237V82.2289H45.8057C45.592 82.2289 45.3871 82.3137 45.236 82.4648C45.0849 82.6159 45 82.8208 45 83.0345C45 83.2482 45.0849 83.4531 45.236 83.6042C45.3871 83.7553 45.592 83.8402 45.8057 83.8402H48.1237V88.4961H45.8057C45.592 88.4961 45.3871 88.5809 45.236 88.732C45.0849 88.8831 45 89.0881 45 89.3017C45 89.5154 45.0849 89.7203 45.236 89.8714C45.3871 90.0225 45.592 90.1074 45.8057 90.1074H48.1237V91.6922C48.1237 93.4479 49.5521 94.8763 51.3078 94.8763H52.8926V97.1943C52.8926 97.408 52.9775 97.6129 53.1286 97.764C53.2797 97.9151 53.4846 98 53.6983 98C53.9119 98 54.1169 97.9151 54.268 97.764C54.4191 97.6129 54.5039 97.408 54.5039 97.1943V94.8763H59.1598V97.1943C59.1598 97.408 59.2447 97.6129 59.3958 97.764C59.5469 97.9151 59.7518 98 59.9655 98C60.1792 98 60.3841 97.9151 60.5352 97.764C60.6863 97.6129 60.7711 97.408 60.7711 97.1943V94.8763H65.4271V97.1943C65.4271 97.408 65.512 97.6129 65.6631 97.764C65.8142 97.9151 66.0191 98 66.2328 98C66.4465 98 66.6514 97.9151 66.8025 97.764C66.9536 97.6129 67.0385 97.408 67.0385 97.1943V94.8763H71.6943V97.1943C71.6943 97.408 71.7792 97.6129 71.9303 97.764C72.0814 97.9151 72.2863 98 72.5 98C72.7137 98 72.9186 97.9151 73.0697 97.764C73.2208 97.6129 73.3057 97.408 73.3057 97.1943V94.8763H77.9615V97.1943C77.9615 97.408 78.0464 97.6129 78.1975 97.764C78.3486 97.9151 78.5535 98 78.7672 98C78.9809 98 79.1858 97.9151 79.3369 97.764C79.488 97.6129 79.5729 97.408 79.5729 97.1943V94.8763H84.2289V97.1943C84.2289 97.408 84.3137 97.6129 84.4648 97.764C84.6159 97.9151 84.8208 98 85.0345 98C85.2482 98 85.4531 97.9151 85.6042 97.764C85.7553 97.6129 85.8402 97.408 85.8402 97.1943V94.8763H90.4961V97.1943C90.4961 97.408 90.5809 97.6129 90.732 97.764C90.8831 97.9151 91.0881 98 91.3017 98C91.5154 98 91.7203 97.9151 91.8714 97.764C92.0225 97.6129 92.1074 97.408 92.1074 97.1943V94.8763H93.6922C95.4479 94.8763 96.8763 93.4479 96.8763 91.6922V90.1074H99.1943C99.408 90.1074 99.6129 90.0225 99.764 89.8714C99.9151 89.7203 100 89.5154 100 89.3017C100 89.0881 99.9151 88.8831 99.764 88.732C99.6129 88.5809 99.408 88.4961 99.1943 88.4961H96.8763V83.8402H99.1943C99.408 83.8402 99.6129 83.7553 99.764 83.6042C99.9151 83.4531 100 83.2482 100 83.0345C100 82.8208 99.9151 82.6159 99.764 82.4648C99.6129 82.3137 99.408 82.2289 99.1943 82.2289H96.8763V77.5729H99.1943C99.408 77.5729 99.6129 77.488 99.764 77.3369C99.9151 77.1858 100 76.9809 100 76.7672C100 76.5535 99.9151 76.3486 99.764 76.1975C99.6129 76.0464 99.408 75.9615 99.1943 75.9615H96.8763V71.3057H99.1943C99.408 71.3057 99.6129 71.2208 99.764 71.0697C99.9151 70.9186 100 70.7137 100 70.5C100 70.2863 99.9151 70.0814 99.764 69.9303C99.6129 69.7792 99.408 69.6943 99.1943 69.6943H96.8763V65.0385H99.1943C99.408 65.0385 99.6129 64.9536 99.764 64.8025C99.9151 64.6514 100 64.4465 100 64.2328C100 64.0191 99.9151 63.8142 99.764 63.6631C99.6129 63.512 99.408 63.4271 99.1943 63.4271H96.8763V58.7711H99.1943ZM95.265 91.6926C95.265 92.5598 94.5594 93.2654 93.6922 93.2654H51.3078C50.4406 93.2654 49.735 92.5598 49.735 91.6926V49.3078C49.735 48.4406 50.4406 47.735 51.3078 47.735H93.6922C94.5594 47.735 95.265 48.4406 95.265 49.3078V91.6926Z" fill="url(#paint83_linear_115_232)"></path> <circle cx="122" cy="122" r="21" fill="#23232F"></circle> <path d="M116.036 132V130.096L124.016 122.396C124.725 121.724 125.248 121.136 125.584 120.632C125.939 120.109 126.172 119.633 126.284 119.204C126.415 118.756 126.48 118.326 126.48 117.916C126.48 116.908 126.125 116.114 125.416 115.536C124.707 114.957 123.671 114.668 122.308 114.668C121.263 114.668 120.32 114.845 119.48 115.2C118.64 115.536 117.912 116.068 117.296 116.796L115.392 115.144C116.139 114.192 117.137 113.464 118.388 112.96C119.657 112.437 121.048 112.176 122.56 112.176C123.923 112.176 125.108 112.4 126.116 112.848C127.124 113.277 127.899 113.902 128.44 114.724C129 115.545 129.28 116.516 129.28 117.636C129.28 118.27 129.196 118.896 129.028 119.512C128.86 120.128 128.543 120.781 128.076 121.472C127.609 122.162 126.937 122.937 126.06 123.796L118.948 130.656L118.276 129.564H130.12V132H116.036Z" fill="url(#paint84_linear_115_232)"></path> <defs> <linearGradient id="paint0_linear_115_232" x1="44.8212" y1="97.2855" x2="44.8212" y2="0.00109014" gradientUnits="userSpaceOnUse"> <stop stop-color="#B50E30"></stop> <stop offset="1" stop-color="#EA1343"></stop> </linearGradient> <linearGradient id="paint1_linear_115_232" x1="62.2389" y1="80.4175" x2="62.2389" y2="43.0004" gradientUnits="userSpaceOnUse"> <stop stop-color="#B50E30"></stop> <stop offset="1" stop-color="#EA1343"></stop> </linearGradient> <linearGradient id="paint2_linear_115_232" x1="62.2389" y1="80.4175" x2="62.2389" y2="43.0004" gradientUnits="userSpaceOnUse"> <stop stop-color="#B50E30"></stop> <stop offset="1" stop-color="#EA1343"></stop> </linearGradient> <linearGradient id="paint3_linear_115_232" x1="62.2389" y1="80.4175" x2="62.2389" y2="43.0004" gradientUnits="userSpaceOnUse"> <stop stop-color="#B50E30"></stop> <stop offset="1" stop-color="#EA1343"></stop> </linearGradient> <linearGradient id="paint4_linear_115_232" x1="62.2389" y1="80.4175" x2="62.2389" y2="43.0004" gradientUnits="userSpaceOnUse"> <stop stop-color="#B50E30"></stop> <stop offset="1" stop-color="#EA1343"></stop> </linearGradient> <linearGradient id="paint5_linear_115_232" x1="62.2389" y1="80.4175" x2="62.2389" y2="43.0004" gradientUnits="userSpaceOnUse"> <stop stop-color="#B50E30"></stop> <stop offset="1" stop-color="#EA1343"></stop> </linearGradient> <linearGradient id="paint6_linear_115_232" x1="62.2389" y1="80.4175" x2="62.2389" y2="43.0004" gradientUnits="userSpaceOnUse"> <stop stop-color="#B50E30"></stop> <stop offset="1" stop-color="#EA1343"></stop> </linearGradient> <linearGradient id="paint7_linear_115_232" x1="62.2389" y1="80.4175" x2="62.2389" y2="43.0004" gradientUnits="userSpaceOnUse"> <stop stop-color="#B50E30"></stop> <stop offset="1" stop-color="#EA1343"></stop> </linearGradient> <linearGradient id="paint8_linear_115_232" x1="62.2389" y1="80.4175" x2="62.2389" y2="43.0004" gradientUnits="userSpaceOnUse"> <stop stop-color="#B50E30"></stop> <stop offset="1" stop-color="#EA1343"></stop> </linearGradient> <linearGradient id="paint9_linear_115_232" x1="62.2389" y1="80.4175" x2="62.2389" y2="43.0004" gradientUnits="userSpaceOnUse"> <stop stop-color="#B50E30"></stop> <stop offset="1" stop-color="#EA1343"></stop> </linearGradient> <linearGradient id="paint10_linear_115_232" x1="62.2389" y1="80.4175" x2="62.2389" y2="43.0004" gradientUnits="userSpaceOnUse"> <stop stop-color="#B50E30"></stop> <stop offset="1" stop-color="#EA1343"></stop> </linearGradient> <linearGradient id="paint11_linear_115_232" x1="62.2389" y1="80.4175" x2="62.2389" y2="43.0004" gradientUnits="userSpaceOnUse"> <stop stop-color="#B50E30"></stop> <stop offset="1" stop-color="#EA1343"></stop> </linearGradient> <linearGradient id="paint12_linear_115_232" x1="62.2389" y1="80.4175" x2="62.2389" y2="43.0004" gradientUnits="userSpaceOnUse"> <stop stop-color="#B50E30"></stop> <stop offset="1" stop-color="#EA1343"></stop> </linearGradient> <linearGradient id="paint13_linear_115_232" x1="62.2389" y1="80.4175" x2="62.2389" y2="43.0004" gradientUnits="userSpaceOnUse"> <stop stop-color="#B50E30"></stop> <stop offset="1" stop-color="#EA1343"></stop> </linearGradient> <linearGradient id="paint14_linear_115_232" x1="62.2389" y1="80.4175" x2="62.2389" y2="43.0004" gradientUnits="userSpaceOnUse"> <stop stop-color="#B50E30"></stop> <stop offset="1" stop-color="#EA1343"></stop> </linearGradient> <linearGradient id="paint15_linear_115_232" x1="62.2389" y1="80.4175" x2="62.2389" y2="43.0004" gradientUnits="userSpaceOnUse"> <stop stop-color="#B50E30"></stop> <stop offset="1" stop-color="#EA1343"></stop> </linearGradient> <linearGradient id="paint16_linear_115_232" x1="62.2389" y1="80.4175" x2="62.2389" y2="43.0004" gradientUnits="userSpaceOnUse"> <stop stop-color="#B50E30"></stop> <stop offset="1" stop-color="#EA1343"></stop> </linearGradient> <linearGradient id="paint17_linear_115_232" x1="62.2389" y1="80.4175" x2="62.2389" y2="43.0004" gradientUnits="userSpaceOnUse"> <stop stop-color="#B50E30"></stop> <stop offset="1" stop-color="#EA1343"></stop> </linearGradient> <linearGradient id="paint18_linear_115_232" x1="62.2389" y1="80.4175" x2="62.2389" y2="43.0004" gradientUnits="userSpaceOnUse"> <stop stop-color="#B50E30"></stop> <stop offset="1" stop-color="#EA1343"></stop> </linearGradient> <linearGradient id="paint19_linear_115_232" x1="62.2389" y1="80.4175" x2="62.2389" y2="43.0004" gradientUnits="userSpaceOnUse"> <stop stop-color="#B50E30"></stop> <stop offset="1" stop-color="#EA1343"></stop> </linearGradient> <linearGradient id="paint20_linear_115_232" x1="62.2389" y1="80.4175" x2="62.2389" y2="43.0004" gradientUnits="userSpaceOnUse"> <stop stop-color="#B50E30"></stop> <stop offset="1" stop-color="#EA1343"></stop> </linearGradient> <linearGradient id="paint21_linear_115_232" x1="62.2389" y1="80.4175" x2="62.2389" y2="43.0004" gradientUnits="userSpaceOnUse"> <stop stop-color="#B50E30"></stop> <stop offset="1" stop-color="#EA1343"></stop> </linearGradient> <linearGradient id="paint22_linear_115_232" x1="62.2389" y1="80.4175" x2="62.2389" y2="43.0004" gradientUnits="userSpaceOnUse"> <stop stop-color="#B50E30"></stop> <stop offset="1" stop-color="#EA1343"></stop> </linearGradient> <linearGradient id="paint23_linear_115_232" x1="62.2389" y1="80.4175" x2="62.2389" y2="43.0004" gradientUnits="userSpaceOnUse"> <stop stop-color="#B50E30"></stop> <stop offset="1" stop-color="#EA1343"></stop> </linearGradient> <linearGradient id="paint24_linear_115_232" x1="62.2389" y1="80.4175" x2="62.2389" y2="43.0004" gradientUnits="userSpaceOnUse"> <stop stop-color="#B50E30"></stop> <stop offset="1" stop-color="#EA1343"></stop> </linearGradient> <linearGradient id="paint25_linear_115_232" x1="62.2389" y1="80.4175" x2="62.2389" y2="43.0004" gradientUnits="userSpaceOnUse"> <stop stop-color="#B50E30"></stop> <stop offset="1" stop-color="#EA1343"></stop> </linearGradient> <linearGradient id="paint26_linear_115_232" x1="62.2389" y1="80.4175" x2="62.2389" y2="43.0004" gradientUnits="userSpaceOnUse"> <stop stop-color="#B50E30"></stop> <stop offset="1" stop-color="#EA1343"></stop> </linearGradient> <linearGradient id="paint27_linear_115_232" x1="62.2389" y1="80.4175" x2="62.2389" y2="43.0004" gradientUnits="userSpaceOnUse"> <stop stop-color="#B50E30"></stop> <stop offset="1" stop-color="#EA1343"></stop> </linearGradient> <linearGradient id="paint28_linear_115_232" x1="62.2389" y1="80.4175" x2="62.2389" y2="43.0004" gradientUnits="userSpaceOnUse"> <stop stop-color="#B50E30"></stop> <stop offset="1" stop-color="#EA1343"></stop> </linearGradient> <linearGradient id="paint29_linear_115_232" x1="62.2389" y1="80.4175" x2="62.2389" y2="43.0004" gradientUnits="userSpaceOnUse"> <stop stop-color="#B50E30"></stop> <stop offset="1" stop-color="#EA1343"></stop> </linearGradient> <linearGradient id="paint30_linear_115_232" x1="62.2389" y1="80.4175" x2="62.2389" y2="43.0004" gradientUnits="userSpaceOnUse"> <stop stop-color="#B50E30"></stop> <stop offset="1" stop-color="#EA1343"></stop> </linearGradient> <linearGradient id="paint31_linear_115_232" x1="62.2389" y1="80.4175" x2="62.2389" y2="43.0004" gradientUnits="userSpaceOnUse"> <stop stop-color="#B50E30"></stop> <stop offset="1" stop-color="#EA1343"></stop> </linearGradient> <linearGradient id="paint32_linear_115_232" x1="62.2389" y1="80.4175" x2="62.2389" y2="43.0004" gradientUnits="userSpaceOnUse"> <stop stop-color="#B50E30"></stop> <stop offset="1" stop-color="#EA1343"></stop> </linearGradient> <linearGradient id="paint33_linear_115_232" x1="62.2389" y1="80.4175" x2="62.2389" y2="43.0004" gradientUnits="userSpaceOnUse"> <stop stop-color="#B50E30"></stop> <stop offset="1" stop-color="#EA1343"></stop> </linearGradient> <linearGradient id="paint34_linear_115_232" x1="62.2389" y1="80.4175" x2="62.2389" y2="43.0004" gradientUnits="userSpaceOnUse"> <stop stop-color="#B50E30"></stop> <stop offset="1" stop-color="#EA1343"></stop> </linearGradient> <linearGradient id="paint35_linear_115_232" x1="62.2389" y1="80.4175" x2="62.2389" y2="43.0004" gradientUnits="userSpaceOnUse"> <stop stop-color="#B50E30"></stop> <stop offset="1" stop-color="#EA1343"></stop> </linearGradient> <linearGradient id="paint36_linear_115_232" x1="62.2389" y1="80.4175" x2="62.2389" y2="43.0004" gradientUnits="userSpaceOnUse"> <stop stop-color="#B50E30"></stop> <stop offset="1" stop-color="#EA1343"></stop> </linearGradient> <linearGradient id="paint37_linear_115_232" x1="62.2389" y1="80.4175" x2="62.2389" y2="43.0004" gradientUnits="userSpaceOnUse"> <stop stop-color="#B50E30"></stop> <stop offset="1" stop-color="#EA1343"></stop> </linearGradient> <linearGradient id="paint38_linear_115_232" x1="62.2389" y1="80.4175" x2="62.2389" y2="43.0004" gradientUnits="userSpaceOnUse"> <stop stop-color="#B50E30"></stop> <stop offset="1" stop-color="#EA1343"></stop> </linearGradient> <linearGradient id="paint39_linear_115_232" x1="62.2389" y1="80.4175" x2="62.2389" y2="43.0004" gradientUnits="userSpaceOnUse"> <stop stop-color="#B50E30"></stop> <stop offset="1" stop-color="#EA1343"></stop> </linearGradient> <linearGradient id="paint40_linear_115_232" x1="62.2389" y1="80.4175" x2="62.2389" y2="43.0004" gradientUnits="userSpaceOnUse"> <stop stop-color="#B50E30"></stop> <stop offset="1" stop-color="#EA1343"></stop> </linearGradient> <linearGradient id="paint41_linear_115_232" x1="62.2389" y1="80.4175" x2="62.2389" y2="43.0004" gradientUnits="userSpaceOnUse"> <stop stop-color="#B50E30"></stop> <stop offset="1" stop-color="#EA1343"></stop> </linearGradient> <linearGradient id="paint42_linear_115_232" x1="62.2389" y1="80.4175" x2="62.2389" y2="43.0004" gradientUnits="userSpaceOnUse"> <stop stop-color="#B50E30"></stop> <stop offset="1" stop-color="#EA1343"></stop> </linearGradient> <linearGradient id="paint43_linear_115_232" x1="62.2389" y1="80.4175" x2="62.2389" y2="43.0004" gradientUnits="userSpaceOnUse"> <stop stop-color="#B50E30"></stop> <stop offset="1" stop-color="#EA1343"></stop> </linearGradient> <linearGradient id="paint44_linear_115_232" x1="62.2389" y1="80.4175" x2="62.2389" y2="43.0004" gradientUnits="userSpaceOnUse"> <stop stop-color="#B50E30"></stop> <stop offset="1" stop-color="#EA1343"></stop> </linearGradient> <linearGradient id="paint45_linear_115_232" x1="62.2389" y1="80.4175" x2="62.2389" y2="43.0004" gradientUnits="userSpaceOnUse"> <stop stop-color="#B50E30"></stop> <stop offset="1" stop-color="#EA1343"></stop> </linearGradient> <linearGradient id="paint46_linear_115_232" x1="62.2389" y1="80.4175" x2="62.2389" y2="43.0004" gradientUnits="userSpaceOnUse"> <stop stop-color="#B50E30"></stop> <stop offset="1" stop-color="#EA1343"></stop> </linearGradient> <linearGradient id="paint47_linear_115_232" x1="62.2389" y1="80.4175" x2="62.2389" y2="43.0004" gradientUnits="userSpaceOnUse"> <stop stop-color="#B50E30"></stop> <stop offset="1" stop-color="#EA1343"></stop> </linearGradient> <linearGradient id="paint48_linear_115_232" x1="62.2389" y1="80.4175" x2="62.2389" y2="43.0004" gradientUnits="userSpaceOnUse"> <stop stop-color="#B50E30"></stop> <stop offset="1" stop-color="#EA1343"></stop> </linearGradient> <linearGradient id="paint49_linear_115_232" x1="62.2389" y1="80.4175" x2="62.2389" y2="43.0004" gradientUnits="userSpaceOnUse"> <stop stop-color="#B50E30"></stop> <stop offset="1" stop-color="#EA1343"></stop> </linearGradient> <linearGradient id="paint50_linear_115_232" x1="62.2389" y1="80.4175" x2="62.2389" y2="43.0004" gradientUnits="userSpaceOnUse"> <stop stop-color="#B50E30"></stop> <stop offset="1" stop-color="#EA1343"></stop> </linearGradient> <linearGradient id="paint51_linear_115_232" x1="62.2389" y1="80.4175" x2="62.2389" y2="43.0004" gradientUnits="userSpaceOnUse"> <stop stop-color="#B50E30"></stop> <stop offset="1" stop-color="#EA1343"></stop> </linearGradient> <linearGradient id="paint52_linear_115_232" x1="62.2389" y1="80.4175" x2="62.2389" y2="43.0004" gradientUnits="userSpaceOnUse"> <stop stop-color="#B50E30"></stop> <stop offset="1" stop-color="#EA1343"></stop> </linearGradient> <linearGradient id="paint53_linear_115_232" x1="62.2389" y1="80.4175" x2="62.2389" y2="43.0004" gradientUnits="userSpaceOnUse"> <stop stop-color="#B50E30"></stop> <stop offset="1" stop-color="#EA1343"></stop> </linearGradient> <linearGradient id="paint54_linear_115_232" x1="62.2389" y1="80.4175" x2="62.2389" y2="43.0004" gradientUnits="userSpaceOnUse"> <stop stop-color="#B50E30"></stop> <stop offset="1" stop-color="#EA1343"></stop> </linearGradient> <linearGradient id="paint55_linear_115_232" x1="62.2389" y1="80.4175" x2="62.2389" y2="43.0004" gradientUnits="userSpaceOnUse"> <stop stop-color="#B50E30"></stop> <stop offset="1" stop-color="#EA1343"></stop> </linearGradient> <linearGradient id="paint56_linear_115_232" x1="62.2389" y1="80.4175" x2="62.2389" y2="43.0004" gradientUnits="userSpaceOnUse"> <stop stop-color="#B50E30"></stop> <stop offset="1" stop-color="#EA1343"></stop> </linearGradient> <linearGradient id="paint57_linear_115_232" x1="62.2389" y1="80.4175" x2="62.2389" y2="43.0004" gradientUnits="userSpaceOnUse"> <stop stop-color="#B50E30"></stop> <stop offset="1" stop-color="#EA1343"></stop> </linearGradient> <linearGradient id="paint58_linear_115_232" x1="62.2389" y1="80.4175" x2="62.2389" y2="43.0004" gradientUnits="userSpaceOnUse"> <stop stop-color="#B50E30"></stop> <stop offset="1" stop-color="#EA1343"></stop> </linearGradient> <linearGradient id="paint59_linear_115_232" x1="62.2389" y1="80.4175" x2="62.2389" y2="43.0004" gradientUnits="userSpaceOnUse"> <stop stop-color="#B50E30"></stop> <stop offset="1" stop-color="#EA1343"></stop> </linearGradient> <linearGradient id="paint60_linear_115_232" x1="62.2389" y1="80.4175" x2="62.2389" y2="43.0004" gradientUnits="userSpaceOnUse"> <stop stop-color="#B50E30"></stop> <stop offset="1" stop-color="#EA1343"></stop> </linearGradient> <linearGradient id="paint61_linear_115_232" x1="62.2389" y1="80.4175" x2="62.2389" y2="43.0004" gradientUnits="userSpaceOnUse"> <stop stop-color="#B50E30"></stop> <stop offset="1" stop-color="#EA1343"></stop> </linearGradient> <linearGradient id="paint62_linear_115_232" x1="62.2389" y1="80.4175" x2="62.2389" y2="43.0004" gradientUnits="userSpaceOnUse"> <stop stop-color="#B50E30"></stop> <stop offset="1" stop-color="#EA1343"></stop> </linearGradient> <linearGradient id="paint63_linear_115_232" x1="62.2389" y1="80.4175" x2="62.2389" y2="43.0004" gradientUnits="userSpaceOnUse"> <stop stop-color="#B50E30"></stop> <stop offset="1" stop-color="#EA1343"></stop> </linearGradient> <linearGradient id="paint64_linear_115_232" x1="62.2389" y1="80.4175" x2="62.2389" y2="43.0004" gradientUnits="userSpaceOnUse"> <stop stop-color="#B50E30"></stop> <stop offset="1" stop-color="#EA1343"></stop> </linearGradient> <linearGradient id="paint65_linear_115_232" x1="62.2389" y1="80.4175" x2="62.2389" y2="43.0004" gradientUnits="userSpaceOnUse"> <stop stop-color="#B50E30"></stop> <stop offset="1" stop-color="#EA1343"></stop> </linearGradient> <linearGradient id="paint66_linear_115_232" x1="62.2389" y1="80.4175" x2="62.2389" y2="43.0004" gradientUnits="userSpaceOnUse"> <stop stop-color="#B50E30"></stop> <stop offset="1" stop-color="#EA1343"></stop> </linearGradient> <linearGradient id="paint67_linear_115_232" x1="62.2389" y1="80.4175" x2="62.2389" y2="43.0004" gradientUnits="userSpaceOnUse"> <stop stop-color="#B50E30"></stop> <stop offset="1" stop-color="#EA1343"></stop> </linearGradient> <linearGradient id="paint68_linear_115_232" x1="62.2389" y1="80.4175" x2="62.2389" y2="43.0004" gradientUnits="userSpaceOnUse"> <stop stop-color="#B50E30"></stop> <stop offset="1" stop-color="#EA1343"></stop> </linearGradient> <linearGradient id="paint69_linear_115_232" x1="62.2389" y1="80.4175" x2="62.2389" y2="43.0004" gradientUnits="userSpaceOnUse"> <stop stop-color="#B50E30"></stop> <stop offset="1" stop-color="#EA1343"></stop> </linearGradient> <linearGradient id="paint70_linear_115_232" x1="62.2389" y1="80.4175" x2="62.2389" y2="43.0004" gradientUnits="userSpaceOnUse"> <stop stop-color="#B50E30"></stop> <stop offset="1" stop-color="#EA1343"></stop> </linearGradient> <linearGradient id="paint71_linear_115_232" x1="62.2389" y1="80.4175" x2="62.2389" y2="43.0004" gradientUnits="userSpaceOnUse"> <stop stop-color="#B50E30"></stop> <stop offset="1" stop-color="#EA1343"></stop> </linearGradient> <linearGradient id="paint72_linear_115_232" x1="62.2389" y1="80.4175" x2="62.2389" y2="43.0004" gradientUnits="userSpaceOnUse"> <stop stop-color="#B50E30"></stop> <stop offset="1" stop-color="#EA1343"></stop> </linearGradient> <linearGradient id="paint73_linear_115_232" x1="62.2389" y1="80.4175" x2="62.2389" y2="43.0004" gradientUnits="userSpaceOnUse"> <stop stop-color="#B50E30"></stop> <stop offset="1" stop-color="#EA1343"></stop> </linearGradient> <linearGradient id="paint74_linear_115_232" x1="62.2389" y1="80.4175" x2="62.2389" y2="43.0004" gradientUnits="userSpaceOnUse"> <stop stop-color="#B50E30"></stop> <stop offset="1" stop-color="#EA1343"></stop> </linearGradient> <linearGradient id="paint75_linear_115_232" x1="62.2389" y1="80.4175" x2="62.2389" y2="43.0004" gradientUnits="userSpaceOnUse"> <stop stop-color="#B50E30"></stop> <stop offset="1" stop-color="#EA1343"></stop> </linearGradient> <linearGradient id="paint76_linear_115_232" x1="62.2389" y1="80.4175" x2="62.2389" y2="43.0004" gradientUnits="userSpaceOnUse"> <stop stop-color="#B50E30"></stop> <stop offset="1" stop-color="#EA1343"></stop> </linearGradient> <linearGradient id="paint77_linear_115_232" x1="62.2389" y1="80.4175" x2="62.2389" y2="43.0004" gradientUnits="userSpaceOnUse"> <stop stop-color="#B50E30"></stop> <stop offset="1" stop-color="#EA1343"></stop> </linearGradient> <linearGradient id="paint78_linear_115_232" x1="62.2389" y1="80.4175" x2="62.2389" y2="43.0004" gradientUnits="userSpaceOnUse"> <stop stop-color="#B50E30"></stop> <stop offset="1" stop-color="#EA1343"></stop> </linearGradient> <linearGradient id="paint79_linear_115_232" x1="62.2389" y1="80.4175" x2="62.2389" y2="43.0004" gradientUnits="userSpaceOnUse"> <stop stop-color="#B50E30"></stop> <stop offset="1" stop-color="#EA1343"></stop> </linearGradient> <linearGradient id="paint80_linear_115_232" x1="62.2389" y1="80.4175" x2="62.2389" y2="43.0004" gradientUnits="userSpaceOnUse"> <stop stop-color="#B50E30"></stop> <stop offset="1" stop-color="#EA1343"></stop> </linearGradient> <linearGradient id="paint81_linear_115_232" x1="62.2389" y1="80.4175" x2="62.2389" y2="43.0004" gradientUnits="userSpaceOnUse"> <stop stop-color="#B50E30"></stop> <stop offset="1" stop-color="#EA1343"></stop> </linearGradient> <linearGradient id="paint82_linear_115_232" x1="62.2389" y1="80.4175" x2="62.2389" y2="43.0004" gradientUnits="userSpaceOnUse"> <stop stop-color="#B50E30"></stop> <stop offset="1" stop-color="#EA1343"></stop> </linearGradient> <linearGradient id="paint83_linear_115_232" x1="62.2389" y1="80.4175" x2="62.2389" y2="43.0004" gradientUnits="userSpaceOnUse"> <stop stop-color="#B50E30"></stop> <stop offset="1" stop-color="#EA1343"></stop> </linearGradient> <linearGradient id="paint84_linear_115_232" x1="120.008" y1="125.662" x2="120.008" y2="112.176" gradientUnits="userSpaceOnUse"> <stop stop-color="#B50E30"></stop> <stop offset="1" stop-color="#EA1343"></stop> </linearGradient> </defs> </svg> 