<?xml version="1.0" encoding="UTF-8"?> <svg xmlns="http://www.w3.org/2000/svg" width="143" height="143" viewBox="0 0 143 143" fill="none"> <circle cx="71.5" cy="71.5" r="70.5" stroke="url(#paint0_linear_115_238)" stroke-width="2"></circle> <path d="M98.1943 72.8428C97.9807 72.8428 97.7757 72.9277 97.6246 73.0787C97.4736 73.2298 97.3887 73.4348 97.3887 73.6484V95.9472C97.3887 96.742 96.742 97.3887 95.9472 97.3887H47.0528C46.258 97.3887 45.6113 96.742 45.6113 95.9472V73.6484C45.6113 73.4348 45.5264 73.2298 45.3754 73.0787C45.2243 72.9277 45.0193 72.8428 44.8057 72.8428C44.592 72.8428 44.3871 72.9277 44.236 73.0787C44.0849 73.2298 44 73.4348 44 73.6484V95.9472C44 97.6305 45.3695 99 47.0528 99H95.9471C97.6304 99 98.9999 97.6305 98.9999 95.9472V73.6484C98.9999 73.5426 98.9791 73.4379 98.9386 73.3401C98.8981 73.2424 98.8388 73.1536 98.764 73.0788C98.6892 73.0039 98.6004 72.9446 98.5026 72.9041C98.4049 72.8636 98.3001 72.8428 98.1943 72.8428ZM95.9472 44H47.0528C45.3695 44 44 45.3695 44 47.0528V69.3516C44 69.5652 44.0849 69.7702 44.236 69.9213C44.3871 70.0723 44.592 70.1572 44.8057 70.1572C45.0193 70.1572 45.2243 70.0723 45.3754 69.9213C45.5264 69.7702 45.6113 69.5652 45.6113 69.3516V47.0528C45.6113 46.258 46.258 45.6113 47.0528 45.6113H95.9471C96.742 45.6113 97.3887 46.258 97.3887 47.0528V69.3516C97.3887 69.5652 97.4736 69.7702 97.6246 69.9213C97.7757 70.0723 97.9807 70.1572 98.1943 70.1572C98.408 70.1572 98.6129 70.0723 98.764 69.9213C98.9151 69.7702 99 69.5652 99 69.3516V47.0528C99 45.3695 97.6305 44 95.9472 44Z" fill="url(#paint1_linear_115_238)"></path> <path d="M88.0792 54.9207C83.6508 50.4921 77.7628 48.0532 71.5 48.0532C65.2372 48.0532 59.3492 50.4921 54.9207 54.9206C50.4921 59.3492 48.0532 65.2372 48.0532 71.5C48.0532 77.7628 50.4921 83.6508 54.9206 88.0793C59.3491 92.5079 65.2371 94.9467 71.4999 94.9467C77.7627 94.9467 83.6507 92.5077 88.0792 88.0793C92.5077 83.6508 94.9465 77.7628 94.9465 71.5C94.9465 65.2372 92.5076 59.3492 88.0792 54.9207ZM71.5 93.3354C59.4599 93.3354 49.6646 83.5401 49.6646 71.5C49.6646 59.4599 59.4599 49.6646 71.5 49.6646C83.5401 49.6646 93.3354 59.4599 93.3354 71.5C93.3354 83.5401 83.5401 93.3354 71.5 93.3354ZM92.6852 89.34C90.9952 89.34 89.6204 90.7149 89.6204 92.4048C89.6204 94.0948 90.9952 95.4697 92.6852 95.4697C94.3752 95.4697 95.7501 94.0948 95.7501 92.4048C95.7501 90.7149 94.3752 89.34 92.6852 89.34ZM92.6852 93.8584C91.8837 93.8584 91.2317 93.2063 91.2317 92.4048C91.2317 91.6034 91.8837 90.9513 92.6852 90.9513C93.4867 90.9513 94.1387 91.6034 94.1387 92.4048C94.1387 93.2063 93.4867 93.8584 92.6852 93.8584ZM50.3148 89.34C48.6248 89.34 47.2499 90.7149 47.2499 92.4048C47.2499 94.0948 48.6248 95.4697 50.3148 95.4697C52.0048 95.4697 53.3796 94.0948 53.3796 92.4048C53.3796 90.7149 52.0048 89.34 50.3148 89.34ZM50.3148 93.8584C49.5133 93.8584 48.8613 93.2063 48.8613 92.4048C48.8613 91.6034 49.5133 90.9513 50.3148 90.9513C51.1163 90.9513 51.7683 91.6034 51.7683 92.4048C51.7683 93.2063 51.1163 93.8584 50.3148 93.8584ZM50.3148 46.8467C48.6248 46.8467 47.2499 48.2216 47.2499 49.9115C47.2499 51.6015 48.6248 52.9764 50.3148 52.9764C52.0048 52.9764 53.3796 51.6015 53.3796 49.9115C53.3796 48.2216 52.0048 46.8467 50.3148 46.8467ZM50.3148 51.3651C49.5133 51.3651 48.8613 50.713 48.8613 49.9115C48.8613 49.1101 49.5133 48.458 50.3148 48.458C51.1163 48.458 51.7683 49.1101 51.7683 49.9115C51.7683 50.713 51.1163 51.3651 50.3148 51.3651ZM92.6852 46.8467C90.9952 46.8467 89.6204 48.2216 89.6204 49.9115C89.6204 51.6015 90.9952 52.9764 92.6852 52.9764C94.3752 52.9764 95.7501 51.6015 95.7501 49.9115C95.7501 48.2216 94.3752 46.8467 92.6852 46.8467ZM92.6852 51.3651C91.8837 51.3651 91.2317 50.713 91.2317 49.9115C91.2317 49.1101 91.8837 48.458 92.6852 48.458C93.4867 48.458 94.1387 49.1101 94.1387 49.9115C94.1387 50.713 93.4867 51.3651 92.6852 51.3651Z" fill="url(#paint2_linear_115_238)"></path> <path d="M91.6294 70.384C91.5623 69.1671 90.632 68.1504 89.4174 67.9663C87.8807 67.7331 86.0896 67.615 84.0942 67.615C82.5337 67.615 81.0835 67.6871 79.9417 67.7687C81.8086 66.5539 84.2124 65.6547 87.1087 65.0928C87.9466 64.9302 88.6276 64.3895 88.9771 63.6093C89.1481 63.2272 89.2247 62.8096 89.2005 62.3916C89.1763 61.9737 89.0521 61.5677 88.8382 61.2078V61.2079C87.7883 59.4422 86.4753 57.847 84.9444 56.4772C84.4711 56.0537 83.8581 55.8199 83.2231 55.8208C82.6642 55.8198 82.1199 55.9989 81.6708 56.3315C78.9993 58.2995 76.4344 61.041 74.8307 62.8923C75.2919 60.7131 76.3559 58.3776 78.0064 55.9322C78.4838 55.2248 78.583 54.3609 78.2785 53.5622C78.1292 53.1711 77.8881 52.8216 77.5755 52.5432C77.2629 52.2648 76.888 52.0655 76.4823 51.9622C74.4911 51.4576 72.4349 51.2581 70.3838 51.3705C69.167 51.4377 68.1503 52.3681 67.9661 53.5825C67.4686 56.8627 67.5936 60.6153 67.7686 63.0581C66.5538 61.1913 65.6546 58.7875 65.0927 55.8913C64.8569 54.676 63.7834 53.794 62.54 53.794C62.0709 53.7945 61.6107 53.9216 61.2077 54.1618C59.4422 55.212 57.8471 56.525 56.4772 58.0557C55.6643 58.9635 55.6031 60.3403 56.3316 61.3294C58.2997 64.001 61.0412 66.5658 62.8924 68.1695C60.7133 67.7083 58.3778 66.6444 55.9324 64.9938C55.5027 64.7037 55.0037 64.5504 54.4892 64.5504C53.2958 64.5504 52.2567 65.3596 51.9623 66.5179C51.4564 68.5088 51.2569 70.5653 51.3706 72.6163C51.4378 73.8331 52.3682 74.8498 53.5826 75.034C55.1195 75.2671 56.9104 75.3853 58.9058 75.3853C60.4657 75.3853 61.9161 75.3132 63.0583 75.2316C61.1914 76.4465 58.7876 77.3456 55.8913 77.9075C55.0535 78.0701 54.3725 78.6108 54.0229 79.391C53.8519 79.7731 53.7753 80.1907 53.7995 80.6087C53.8236 81.0266 53.9478 81.4326 54.1617 81.7925C55.2119 83.558 56.5249 85.1531 58.0556 86.5231C58.5289 86.9465 59.1419 87.1802 59.7769 87.1793C60.3358 87.1803 60.8802 87.0012 61.3293 86.6686C64.0009 84.7005 66.5657 81.9591 68.1693 80.1079C67.7081 82.2871 66.6442 84.6225 64.9937 87.0679C64.5162 87.7753 64.417 88.6392 64.7215 89.4381C64.8708 89.8291 65.112 90.1786 65.4246 90.457C65.7372 90.7355 66.1121 90.9347 66.5178 91.038C68.5088 91.5434 70.5652 91.7428 72.6162 91.6296C73.833 91.5624 74.8497 90.6321 75.0339 89.4176C75.5312 86.1373 75.4064 82.3847 75.2314 79.942C76.4461 81.809 77.3454 84.2126 77.9074 87.1088C78.1431 88.3241 79.2166 89.2062 80.4601 89.2063C80.927 89.2063 81.3876 89.0792 81.7923 88.8385C83.5578 87.7884 85.1529 86.4753 86.5227 84.9446C87.3358 84.0368 87.397 82.66 86.6683 81.6709C84.7001 78.9991 81.9587 76.4344 80.1076 74.8308C82.2867 75.292 84.6222 76.3559 87.0677 78.0065C87.4974 78.2966 87.9965 78.4498 88.5109 78.4498C89.7042 78.4498 90.7433 77.6408 91.0377 76.4823C91.5436 74.4914 91.7431 72.435 91.6294 70.384ZM82.6263 57.6288C82.7989 57.5008 83.0082 57.4318 83.2231 57.432C83.4614 57.4313 83.6916 57.5187 83.8695 57.6774C85.2785 58.9382 86.487 60.4064 87.4534 62.0314C87.5353 62.1691 87.5828 62.3244 87.5921 62.4844C87.6014 62.6443 87.5721 62.8041 87.5067 62.9503C87.3725 63.2496 87.1223 63.4486 86.8018 63.5108C83.5685 64.1382 80.8821 65.1729 78.8004 66.5909C78.0805 65.5244 77.1372 64.6272 76.0359 63.9617C77.5871 62.1696 80.0676 59.5138 82.6263 57.6288ZM69.5592 53.8241C69.6296 53.36 70.0137 53.0047 70.4725 52.9794C72.3603 52.8751 74.253 53.0587 76.0855 53.5239C76.2407 53.5634 76.3842 53.6396 76.5038 53.7461C76.6234 53.8526 76.7156 53.9863 76.7728 54.1359C76.8896 54.4425 76.8534 54.7602 76.6709 55.0308C74.829 57.7595 73.6612 60.3897 73.1915 62.8634C73.1457 62.8545 73.0994 62.848 73.0534 62.8399C72.968 62.8246 72.883 62.8088 72.7967 62.796C72.7333 62.7866 72.6695 62.7798 72.6059 62.7718C72.5274 62.7619 72.4492 62.7509 72.37 62.7432C72.2891 62.7351 72.2078 62.7304 72.1266 62.7246C72.0638 62.7202 72.0013 62.7141 71.9381 62.711C71.7922 62.7037 71.6461 62.7 71.5 62.6999C71.3644 62.6999 71.2294 62.704 71.0946 62.7102C71.0687 62.7114 71.0428 62.7124 71.017 62.7137C70.8909 62.7206 70.7649 62.7302 70.6392 62.7425C70.6075 62.7457 70.5761 62.7493 70.5444 62.7527C70.432 62.7649 70.3199 62.7792 70.208 62.7956C70.1731 62.8008 70.1384 62.8063 70.1037 62.8119C70.0065 62.8276 69.9096 62.845 69.8129 62.864C69.7638 62.8736 69.7148 62.8833 69.6659 62.8937C69.5692 62.9144 69.4727 62.9363 69.3768 62.9603C69.2065 60.5959 69.0829 56.965 69.5592 53.8241ZM58.9054 73.7738C56.9908 73.7738 55.2812 73.6618 53.8239 73.4407C53.3599 73.3703 53.0047 72.9862 52.9794 72.5274C52.8747 70.6396 53.0582 68.7469 53.5238 66.9145C53.578 66.6995 53.7023 66.5087 53.8771 66.3723C54.0519 66.2359 54.2673 66.1618 54.489 66.1616C54.6811 66.1616 54.8683 66.2195 55.0307 66.3291C57.7595 68.171 60.3896 69.3388 62.8633 69.8085C62.8544 69.8543 62.8479 69.9006 62.8398 69.9466C62.8245 70.032 62.8087 70.1171 62.7959 70.2033C62.7865 70.2667 62.7797 70.3305 62.7716 70.3941C62.7618 70.4726 62.7508 70.5508 62.7431 70.63C62.735 70.7109 62.7303 70.7922 62.7245 70.8734C62.7201 70.9363 62.714 70.9987 62.7108 71.0619C62.7036 71.2078 62.6999 71.3539 62.6998 71.5C62.6998 71.6356 62.7039 71.7706 62.7101 71.9054C62.7113 71.9313 62.7122 71.9572 62.7136 71.9831C62.7205 72.1091 62.7301 72.235 62.7424 72.3607C62.7455 72.3925 62.7492 72.4241 62.7526 72.4559C62.7649 72.568 62.7788 72.6797 62.7954 72.7911C62.8151 72.9233 62.8379 73.055 62.8637 73.1861C62.8734 73.2358 62.8832 73.2855 62.8937 73.335C62.9143 73.4313 62.9362 73.5275 62.9601 73.6231C61.8461 73.703 60.4288 73.7738 58.9054 73.7738ZM57.6288 60.3736C57.3505 59.9955 57.3709 59.4728 57.6775 59.1305C58.9383 57.7217 60.4064 56.5132 62.0313 55.5466C62.1851 55.4546 62.3608 55.4057 62.5399 55.4052C63.0133 55.4052 63.4217 55.7386 63.5108 56.1982C64.1382 59.4315 65.1729 62.1179 66.5909 64.1996C65.5244 64.9195 64.6272 65.8628 63.9617 66.9641C62.1697 65.413 59.5138 62.9322 57.6288 60.3736ZM60.3736 85.3711C60.201 85.4991 59.9917 85.5681 59.7768 85.5679C59.5385 85.5685 59.3083 85.4811 59.1304 85.3225C57.7215 84.0616 56.513 82.5935 55.5463 80.9686C55.4645 80.8309 55.417 80.6756 55.4077 80.5156C55.3984 80.3557 55.4277 80.1959 55.4931 80.0497C55.6272 79.7503 55.8775 79.5513 56.198 79.4891C59.4313 78.8617 62.1177 77.827 64.1994 76.409C64.9193 77.4755 65.8626 78.3727 66.9639 79.0382C65.413 80.8303 62.9322 83.4862 60.3736 85.3711ZM73.4408 89.1759C73.3704 89.64 72.9863 89.9951 72.5275 90.0205C70.6433 90.1244 68.7402 89.9399 66.9146 89.4761C66.7594 89.4366 66.6159 89.3604 66.4963 89.2539C66.3766 89.1474 66.2844 89.0137 66.2272 88.8641C66.1104 88.5575 66.1466 88.2398 66.3292 87.9692C68.1711 85.2404 69.3389 82.6103 69.8085 80.1366C69.8533 80.1454 69.8986 80.1515 69.9435 80.1597C70.0298 80.1752 70.116 80.1911 70.2031 80.2041C70.2672 80.2136 70.3317 80.2205 70.3961 80.2287C70.4738 80.2384 70.5513 80.2493 70.6296 80.257C70.7118 80.2652 70.7946 80.27 70.8772 80.2759C70.9387 80.2802 70.9998 80.2863 71.0618 80.2894C71.2076 80.2966 71.3537 80.3005 71.5001 80.3005C71.6357 80.3005 71.7708 80.2965 71.9056 80.2902C71.9314 80.289 71.9573 80.2881 71.9831 80.2867C72.1093 80.2798 72.2353 80.2702 72.3611 80.2579C72.3927 80.2548 72.424 80.2512 72.4555 80.2478C72.5682 80.2357 72.6805 80.2214 72.7926 80.2048C72.8271 80.1998 72.8614 80.1942 72.8957 80.1887C72.9932 80.173 73.0905 80.1556 73.1874 80.1365C73.2364 80.1269 73.2854 80.1174 73.334 80.107C73.4307 80.0862 73.5273 80.0643 73.6233 80.0404C73.7935 82.4041 73.917 86.035 73.4408 89.1759ZM75.3728 77.5519C75.2913 77.6044 75.2088 77.6551 75.1252 77.7043L75.1145 77.7104C75.0312 77.7591 74.9467 77.8065 74.8612 77.852L74.8577 77.8541C74.5996 77.991 74.3333 78.1118 74.0604 78.2161L74.0577 78.217C73.9596 78.2545 73.8609 78.2895 73.7617 78.3225L73.7415 78.3293C73.6518 78.359 73.5615 78.3862 73.471 78.4122C73.4502 78.4181 73.4295 78.4242 73.4087 78.4299C73.2952 78.4612 73.181 78.4896 73.0661 78.5153C72.9953 78.5312 72.9244 78.546 72.8532 78.5597C72.8073 78.5685 72.7612 78.5765 72.7152 78.5844C72.6527 78.5951 72.5902 78.6055 72.5275 78.6146C72.4701 78.6228 72.4124 78.6297 72.3546 78.6366C72.3005 78.643 72.2464 78.6499 72.1921 78.6552C72.121 78.662 72.0492 78.6668 71.9776 78.6715C71.9347 78.6743 71.892 78.6781 71.8491 78.6803C71.7334 78.6859 71.6171 78.6891 71.5 78.6891C71.3902 78.6888 71.2805 78.686 71.1709 78.6807C71.1375 78.6792 71.104 78.6771 71.0706 78.6751C70.9912 78.6704 70.9119 78.6643 70.8327 78.657C70.7994 78.6539 70.766 78.6512 70.7327 78.6476C70.6293 78.6368 70.5261 78.6236 70.4233 78.6082C70.3937 78.6037 70.3642 78.598 70.3346 78.5932C70.2162 78.5741 70.0984 78.5517 69.9813 78.5261C69.9186 78.5125 69.8562 78.4981 69.7939 78.4829C69.7515 78.4724 69.709 78.4625 69.6666 78.4514C69.2897 78.3515 68.9216 78.2208 68.5661 78.0607L68.5616 78.0583C67.2915 77.4868 66.2056 76.5473 65.4525 75.3798L65.4472 75.3716C65.3952 75.2907 65.3448 75.2087 65.2961 75.1258C65.2936 75.1215 65.2912 75.1172 65.2887 75.113C65.2401 75.0301 65.1932 74.9462 65.1479 74.8613C65.1473 74.8602 65.1465 74.8592 65.146 74.858C65.0092 74.5999 64.8882 74.3336 64.7839 74.0607C64.7836 74.0598 64.7833 74.0587 64.7829 74.0577C64.7455 73.9595 64.7102 73.8605 64.677 73.7607L64.6707 73.7421C64.6412 73.6521 64.6134 73.5615 64.5875 73.4703C64.5817 73.4499 64.5758 73.4297 64.5701 73.4092C64.5388 73.2958 64.5103 73.1815 64.4847 73.0666C64.4688 72.9956 64.454 72.9244 64.4402 72.853C64.4316 72.8073 64.4234 72.7615 64.4156 72.7156C64.4049 72.653 64.3945 72.5902 64.3853 72.5273C64.3773 72.4699 64.37 72.4125 64.3634 72.355C64.357 72.3007 64.3501 72.2465 64.3448 72.192C64.3384 72.1207 64.3329 72.0492 64.3285 71.9777C64.3257 71.9347 64.3217 71.892 64.3197 71.849C64.314 71.7328 64.311 71.6164 64.3109 71.5C64.3109 71.3897 64.3143 71.2801 64.3193 71.171C64.3208 71.1375 64.3229 71.104 64.3249 71.0705C64.3296 70.991 64.3357 70.9119 64.343 70.833C64.3461 70.7995 64.3488 70.766 64.3524 70.7326C64.3633 70.6293 64.3764 70.5262 64.3918 70.4235C64.3963 70.3934 64.4021 70.3636 64.407 70.3336C64.4192 70.259 64.4325 70.1846 64.447 70.1104C64.468 70.0045 64.4914 69.8991 64.5171 69.7942C64.5276 69.7516 64.5376 69.7088 64.5488 69.6664C64.6487 69.2896 64.7793 68.9216 64.9394 68.5661L64.9418 68.5616C65.5133 67.2915 66.4528 66.2056 67.6204 65.4525L67.6285 65.4472C67.7094 65.3952 67.7914 65.3448 67.8743 65.2961C67.8786 65.2936 67.8829 65.2912 67.8871 65.2887C67.97 65.2401 68.054 65.1932 68.1388 65.1479C68.14 65.1473 68.1409 65.1465 68.1421 65.146C68.4 65.0092 68.666 64.8884 68.9387 64.7842L68.9424 64.783C69.0408 64.7454 69.1398 64.7103 69.2394 64.6771L69.258 64.6708C69.348 64.6413 69.4386 64.6135 69.5298 64.5876C69.5502 64.5818 69.5704 64.5759 69.5909 64.5702C69.7043 64.5389 69.8186 64.5104 69.9335 64.4848C70.0045 64.4689 70.0757 64.4541 70.1471 64.4403C70.1928 64.4316 70.2385 64.4236 70.2845 64.4157C70.3471 64.405 70.4099 64.3946 70.4728 64.3854C70.5302 64.3774 70.5876 64.3701 70.6451 64.3635C70.6994 64.3571 70.7536 64.3502 70.8081 64.345C70.8794 64.3385 70.9509 64.333 71.0224 64.3286C71.0654 64.3258 71.1081 64.3219 71.1511 64.3198C71.2673 64.3141 71.3837 64.3111 71.5001 64.311C71.6104 64.311 71.72 64.3144 71.8291 64.3194C71.8627 64.3209 71.8961 64.323 71.9296 64.325C72.0091 64.3297 72.0882 64.3358 72.1671 64.3431C72.2006 64.3462 72.2341 64.3489 72.2675 64.3525C72.3708 64.3634 72.4739 64.3765 72.5766 64.3919C72.6067 64.3964 72.6365 64.4022 72.6665 64.4071C72.7411 64.4193 72.8155 64.4326 72.8897 64.4471C72.9956 64.4681 73.101 64.4915 73.2059 64.5173C73.2485 64.5277 73.2913 64.5377 73.3337 64.5489C73.7105 64.6488 74.0785 64.7794 74.434 64.9395L74.4385 64.9419C75.7086 65.5134 76.7945 66.4529 77.5476 67.6205L77.5529 67.6286C77.6049 67.7095 77.6553 67.7915 77.704 67.8744C77.7065 67.8787 77.7089 67.883 77.7115 67.8872C77.7599 67.9701 77.807 68.0539 77.8522 68.1389C77.8528 68.1401 77.8536 68.141 77.8541 68.1422C77.9909 68.4003 78.1119 68.6666 78.2162 68.9395C78.2166 68.9405 78.2168 68.9415 78.2172 68.9425C78.2548 69.0408 78.2898 69.1397 78.323 69.2392L78.3295 69.2583C78.3591 69.3482 78.3864 69.4388 78.4125 69.5296C78.4184 69.5501 78.4244 69.5706 78.43 69.5912C78.4613 69.7047 78.4897 69.8189 78.5154 69.9338C78.5313 70.0047 78.5461 70.0758 78.5599 70.1471C78.5686 70.1928 78.5766 70.2388 78.5845 70.2847C78.5952 70.3473 78.6056 70.41 78.6148 70.4728C78.623 70.5301 78.6299 70.5877 78.6368 70.6454C78.6432 70.6996 78.6501 70.7537 78.6554 70.8082C78.6622 70.8793 78.667 70.951 78.6717 71.0226C78.6745 71.0655 78.6784 71.1083 78.6805 71.1513C78.6861 71.267 78.6893 71.3833 78.6893 71.5004C78.6893 71.6108 78.6859 71.7203 78.6809 71.8295C78.6794 71.863 78.6773 71.8964 78.6754 71.9299C78.6706 72.0094 78.6645 72.0886 78.6572 72.1674C78.6541 72.2009 78.6514 72.2344 78.6479 72.2679C78.637 72.3711 78.6238 72.4742 78.6084 72.5769C78.6039 72.607 78.5981 72.6368 78.5932 72.6668C78.581 72.7414 78.5677 72.8158 78.5532 72.89C78.5322 72.9959 78.5088 73.1013 78.4831 73.2062C78.4726 73.2488 78.4627 73.2916 78.4514 73.334C78.3515 73.7109 78.2209 74.0789 78.0608 74.4343L78.0584 74.4388C77.4867 75.7091 76.547 76.7955 75.3789 77.5486C75.3767 77.5495 75.3747 77.5506 75.3728 77.5519ZM85.3711 82.6264C85.6495 83.0043 85.629 83.5272 85.3224 83.8695C84.0616 85.2784 82.5936 86.4869 80.9687 87.4534C80.8149 87.5454 80.6392 87.5943 80.46 87.5948C79.9865 87.5948 79.5782 87.2614 79.4892 86.8018C78.8617 83.5685 77.827 80.8821 76.4091 78.8004C77.4756 78.0805 78.3727 77.1372 79.0382 76.0359C80.8303 77.5868 83.4861 80.0675 85.3711 82.6264ZM89.4762 76.0853C89.422 76.3003 89.2977 76.4911 89.1229 76.6275C88.948 76.7638 88.7327 76.838 88.511 76.8382C88.3178 76.8378 88.1291 76.7794 87.9694 76.6706C85.2405 74.8288 82.6104 73.661 80.1368 73.1912C80.1458 73.1451 80.1523 73.0984 80.1606 73.0521C80.1757 72.9673 80.1914 72.8827 80.2041 72.797C80.2137 72.7321 80.2207 72.6669 80.229 72.6018C80.2387 72.5247 80.2494 72.4479 80.2571 72.3701C80.2653 72.2879 80.2701 72.2053 80.276 72.1228C80.2803 72.0611 80.2864 71.9998 80.2895 71.9379C80.2967 71.7921 80.3006 71.646 80.3006 71.4996C80.3006 71.364 80.2966 71.229 80.2903 71.0942C80.2891 71.0683 80.2882 71.0424 80.2868 71.0165C80.2799 70.8904 80.2703 70.7645 80.258 70.6389C80.2549 70.6071 80.2512 70.5754 80.2478 70.5436C80.2357 70.4316 80.2214 70.3199 80.205 70.2085C80.1998 70.1728 80.1941 70.1374 80.1884 70.1019C80.1728 70.0055 80.1556 69.9093 80.1367 69.8135C80.127 69.7637 80.1173 69.7141 80.1067 69.6647C80.0862 69.5683 80.0641 69.4722 80.0404 69.3765C81.1537 69.2971 82.5708 69.2262 84.0944 69.2262C86.0092 69.2262 87.7189 69.3382 89.1761 69.5592C89.6401 69.6296 89.9953 70.0137 90.0206 70.4725C90.1253 72.3602 89.9418 74.2529 89.4762 76.0853Z" fill="url(#paint3_linear_115_238)"></path> <circle cx="122" cy="122" r="21" fill="#23232F"></circle> <path d="M122.336 133.224C120.955 133.224 119.611 133.01 118.304 132.58C117.016 132.151 115.961 131.572 115.14 130.844L116.428 128.632C117.081 129.248 117.931 129.752 118.976 130.144C120.021 130.536 121.141 130.732 122.336 130.732C123.792 130.732 124.921 130.424 125.724 129.808C126.545 129.174 126.956 128.324 126.956 127.26C126.956 126.234 126.564 125.412 125.78 124.796C125.015 124.162 123.792 123.844 122.112 123.844H120.544V121.884L126.368 114.716L126.76 115.836H116.036V113.4H128.972V115.304L123.176 122.444L121.72 121.576H122.644C125.015 121.576 126.788 122.108 127.964 123.172C129.159 124.236 129.756 125.59 129.756 127.232C129.756 128.334 129.485 129.342 128.944 130.256C128.403 131.171 127.581 131.899 126.48 132.44C125.397 132.963 124.016 133.224 122.336 133.224Z" fill="url(#paint4_linear_115_238)"></path> <defs> <linearGradient id="paint0_linear_115_238" x1="44.8212" y1="97.2855" x2="44.8212" y2="0.00109014" gradientUnits="userSpaceOnUse"> <stop stop-color="#B50E30"></stop> <stop offset="1" stop-color="#EA1343"></stop> </linearGradient> <linearGradient id="paint1_linear_115_238" x1="61.2389" y1="81.4175" x2="61.2389" y2="44.0004" gradientUnits="userSpaceOnUse"> <stop stop-color="#B50E30"></stop> <stop offset="1" stop-color="#EA1343"></stop> </linearGradient> <linearGradient id="paint2_linear_115_238" x1="61.2389" y1="81.4175" x2="61.2389" y2="44.0004" gradientUnits="userSpaceOnUse"> <stop stop-color="#B50E30"></stop> <stop offset="1" stop-color="#EA1343"></stop> </linearGradient> <linearGradient id="paint3_linear_115_238" x1="61.2389" y1="81.4175" x2="61.2389" y2="44.0004" gradientUnits="userSpaceOnUse"> <stop stop-color="#B50E30"></stop> <stop offset="1" stop-color="#EA1343"></stop> </linearGradient> <linearGradient id="paint4_linear_115_238" x1="119.721" y1="126.887" x2="119.721" y2="113.401" gradientUnits="userSpaceOnUse"> <stop stop-color="#B50E30"></stop> <stop offset="1" stop-color="#EA1343"></stop> </linearGradient> </defs> </svg> 