<?xml version="1.0" encoding="UTF-8"?> <svg xmlns="http://www.w3.org/2000/svg" width="143" height="143" viewBox="0 0 143 143" fill="none"> <circle cx="71.5" cy="71.5" r="70.5" stroke="url(#paint0_linear_115_252)" stroke-width="2"></circle> <circle cx="122" cy="122" r="21" fill="#23232F"></circle> <path d="M103.75 66.1125L101.808 58.3437C102.339 58.2309 102.737 57.7598 102.737 57.1954V55.9428C102.737 53.2232 100.524 51.0107 97.8049 51.0107H88.9584V48.427C88.9584 47.0887 87.8697 46 86.5315 46H41.4373C40.099 46 39.0104 47.0887 39.0104 48.427V69.7214C39.0104 70.0329 39.1341 70.3316 39.3543 70.5518C39.5746 70.7721 39.8733 70.8958 40.1847 70.8958C40.4962 70.8958 40.7949 70.7721 41.0151 70.5518C41.2354 70.3316 41.3591 70.0329 41.3591 69.7214V48.427C41.3591 48.3837 41.3941 48.3487 41.4373 48.3487H86.5313C86.5745 48.3487 86.6095 48.3837 86.6095 48.427V69.7217C86.6095 70.0332 86.7333 70.3319 86.9535 70.5521C87.1737 70.7724 87.4724 70.8961 87.7839 70.8961C88.0954 70.8961 88.3941 70.7724 88.6143 70.5521C88.8345 70.3319 88.9583 70.0332 88.9583 69.7217V68.3905H102.811L102.814 68.3908L102.817 68.3906C104.522 68.3918 105.97 69.5106 106.467 71.0524H102.815C102.504 71.0524 102.205 71.1761 101.985 71.3964C101.764 71.6166 101.641 71.9153 101.641 72.2268V74.7319C101.641 76.7609 103.291 78.4115 105.32 78.4115H106.651V83.5784H103.581C102.572 80.6659 99.8033 78.5679 96.552 78.5679C93.3008 78.5679 90.5319 80.6659 89.5234 83.5784H88.958V74.7318C88.958 74.4203 88.8342 74.1216 88.614 73.9014C88.3938 73.6812 88.0951 73.5574 87.7836 73.5574C87.4721 73.5574 87.1734 73.6812 86.9532 73.9014C86.733 74.1216 86.6092 74.4203 86.6092 74.7318V83.5782H62.2447C61.236 80.6656 58.4673 78.5676 55.2161 78.5676C51.9649 78.5676 49.196 80.6656 48.1875 83.5782H41.4373C41.4166 83.5782 41.3967 83.5699 41.382 83.5552C41.3673 83.5406 41.3591 83.5207 41.3591 83.4999V80.9164H46.4478C46.7593 80.9164 47.058 80.7926 47.2782 80.5724C47.4985 80.3522 47.6222 80.0535 47.6222 79.742C47.6222 79.4305 47.4985 79.1318 47.2782 78.9116C47.058 78.6914 46.7593 78.5676 46.4478 78.5676H35.1744C34.8629 78.5676 34.5642 78.6914 34.344 78.9116C34.1237 79.1318 34 79.4305 34 79.742C34 80.0535 34.1237 80.3522 34.344 80.5724C34.5642 80.7926 34.8629 80.9164 35.1744 80.9164H39.0105V83.4999C39.0105 84.8382 40.0992 85.9269 41.4375 85.9269H47.7808C47.7805 85.953 47.7788 85.9789 47.7788 86.0051C47.7788 90.1061 51.1153 93.4424 55.2161 93.4424C59.3169 93.4424 62.6534 90.1061 62.6534 86.0051C62.6534 85.9787 62.6517 85.953 62.6514 85.9269H89.1168C89.1165 85.953 89.1147 85.9789 89.1147 86.0051C89.1147 90.1061 92.4512 93.4424 96.552 93.4424C100.653 93.4424 103.989 90.1061 103.989 86.0051C103.989 85.9787 103.988 85.953 103.987 85.9269H107.826C108.137 85.9269 108.436 85.8032 108.656 85.5829C108.876 85.3627 109 85.064 109 84.7525V72.2265C109 69.1339 106.718 66.5644 103.75 66.1125ZM88.9584 53.3592H97.8049C99.2295 53.3592 100.388 54.5182 100.388 55.9428V56.021H88.9584V53.3592ZM88.9584 66.0419V58.3696H99.3932L101.311 66.0419H88.9584ZM55.2161 91.0941C52.4102 91.0941 50.1274 88.8115 50.1274 86.0054C50.1274 83.1993 52.4102 80.9167 55.2161 80.9167C58.022 80.9167 60.3048 83.1993 60.3048 86.0054C60.3048 88.8115 58.022 91.0941 55.2161 91.0941ZM96.5523 91.0941C93.7464 91.0941 91.4636 88.8115 91.4636 86.0054C91.4636 83.1993 93.7464 80.9167 96.5523 80.9167C99.3582 80.9167 101.641 83.1993 101.641 86.0054C101.641 88.8115 99.3582 91.0941 96.5523 91.0941ZM106.652 76.0628H105.321C104.587 76.0628 103.99 75.4657 103.99 74.7318V73.4008H106.651L106.652 76.0628Z" fill="url(#paint1_linear_115_252)"></path> <path d="M55.2161 83.5785C53.8778 83.5785 52.7891 84.6672 52.7891 86.0055C52.7891 87.3438 53.8778 88.4324 55.2161 88.4324C56.5544 88.4324 57.643 87.3438 57.643 86.0055C57.643 84.6672 56.5544 83.5785 55.2161 83.5785ZM96.5523 83.5785C95.214 83.5785 94.1254 84.6672 94.1254 86.0055C94.1254 87.3438 95.214 88.4324 96.5523 88.4324C97.8906 88.4324 98.9793 87.3438 98.9793 86.0055C98.9793 84.6672 97.8906 83.5785 96.5523 83.5785ZM82.7735 78.5682H65.237C64.9255 78.5682 64.6268 78.6919 64.4066 78.9121C64.1863 79.1324 64.0626 79.4311 64.0626 79.7425C64.0626 80.054 64.1863 80.3527 64.4066 80.5729C64.6268 80.7932 64.9255 80.9169 65.237 80.9169H82.7735C83.085 80.9169 83.3837 80.7932 83.6039 80.5729C83.8242 80.3527 83.9479 80.054 83.9479 79.7425C83.9479 79.4311 83.8242 79.1324 83.6039 78.9121C83.3837 78.6919 83.085 78.5682 82.7735 78.5682ZM52.7109 73.5577H37.6795C37.3681 73.5577 37.0694 73.6814 36.8491 73.9016C36.6289 74.1219 36.5052 74.4206 36.5052 74.732C36.5052 75.0435 36.6289 75.3422 36.8491 75.5624C37.0694 75.7827 37.3681 75.9064 37.6795 75.9064H52.7109C53.0224 75.9064 53.3211 75.7827 53.5413 75.5624C53.7616 75.3422 53.8853 75.0435 53.8853 74.732C53.8853 74.4206 53.7616 74.1219 53.5413 73.9016C53.3211 73.6814 53.0224 73.5577 52.7109 73.5577ZM74.8357 57.6175C74.6154 57.3973 74.3167 57.2736 74.0053 57.2737C73.6939 57.2737 73.3952 57.3974 73.175 57.6176L62.7318 68.0607L57.2991 62.628C57.1901 62.519 57.0606 62.4325 56.9181 62.3734C56.7757 62.3144 56.623 62.284 56.4688 62.284C56.3145 62.284 56.1618 62.3144 56.0194 62.3734C55.8769 62.4325 55.7474 62.519 55.6384 62.628C55.5294 62.737 55.4428 62.8665 55.3838 63.009C55.3248 63.1514 55.2944 63.3041 55.2944 63.4584C55.2944 63.6126 55.3248 63.7653 55.3838 63.9077C55.4428 64.0502 55.5294 64.1797 55.6384 64.2887L61.9015 70.5518C62.1308 70.7812 62.4313 70.8957 62.7318 70.8957C63.0322 70.8957 63.333 70.7812 63.5621 70.5518L74.8355 59.2783C75.0557 59.0581 75.1795 58.7594 75.1795 58.4479C75.1795 58.1365 75.0559 57.8378 74.8357 57.6175Z" fill="url(#paint2_linear_115_252)"></path> <path d="M113.064 127.184V125.224L123.088 112.4H126.112L116.172 125.224L114.744 124.776H130.396V127.184H113.064ZM123.956 132V127.184L124.04 124.776V120.52H126.672V132H123.956Z" fill="url(#paint3_linear_115_252)"></path> <defs> <linearGradient id="paint0_linear_115_252" x1="44.8212" y1="97.2855" x2="44.8212" y2="0.00109014" gradientUnits="userSpaceOnUse"> <stop stop-color="#B50E30"></stop> <stop offset="1" stop-color="#EA1343"></stop> </linearGradient> <linearGradient id="paint1_linear_115_252" x1="56.0866" y1="78.4716" x2="56.0866" y2="57.274" gradientUnits="userSpaceOnUse"> <stop stop-color="#B50E30"></stop> <stop offset="1" stop-color="#EA1343"></stop> </linearGradient> <linearGradient id="paint2_linear_115_252" x1="56.0866" y1="78.4716" x2="56.0866" y2="57.274" gradientUnits="userSpaceOnUse"> <stop stop-color="#B50E30"></stop> <stop offset="1" stop-color="#EA1343"></stop> </linearGradient> <linearGradient id="paint3_linear_115_252" x1="118.496" y1="125.735" x2="118.496" y2="112.401" gradientUnits="userSpaceOnUse"> <stop stop-color="#B50E30"></stop> <stop offset="1" stop-color="#EA1343"></stop> </linearGradient> </defs> </svg> 