<?xml version="1.0" encoding="UTF-8"?> <svg xmlns="http://www.w3.org/2000/svg" width="512" height="512" viewBox="0 0 512 512" fill="none"> <g clip-path="url(#clip0_115_292)"> <path d="M442.313 23.0837C438.477 21.4667 434.059 23.2637 432.441 27.0877C432.054 27.9981 431.851 28.9759 431.842 29.9651C431.834 30.9543 432.021 31.9354 432.392 32.8523C432.763 33.7692 433.312 34.6039 434.006 35.3085C434.7 36.0131 435.527 36.5739 436.438 36.9587C471.281 51.6657 497.105 86.4937 497.105 128.545C497.105 219.662 383.648 263.084 323.235 194.435C289.078 155.943 289.469 96.1577 327.379 58.2477C349.781 35.8337 380.074 26.3337 409.465 29.8177C413.594 30.2907 417.34 27.3607 417.832 23.2247C418.324 19.0947 415.372 15.3497 411.242 14.8567C312.566 3.1307 247.324 114.291 304.043 194.436H146.207C139.168 194.436 133.457 200.158 133.457 207.186V304.623L119.309 332.428C116.629 337.701 112.16 341.635 106.859 343.647C106.859 332.025 97.746 323.963 87.559 323.963H58.508C48.488 323.963 39.199 331.736 39.199 344.037H20.523C9.20701 344.037 1.12517e-05 353.244 1.12517e-05 364.568V373.689C-0.000514956 374.678 0.193943 375.657 0.572262 376.571C0.95058 377.485 1.50534 378.315 2.2048 379.014C2.90426 379.713 3.7347 380.268 4.64863 380.646C5.56255 381.024 6.54202 381.218 7.53101 381.217C11.688 381.217 15.063 377.846 15.063 373.69V364.568C15.063 361.548 17.512 359.1 20.523 359.1H39.2V463.354H20.523C19.0752 463.352 17.6872 462.776 16.6636 461.752C15.64 460.729 15.0643 459.34 15.063 457.893V403.811C15.0635 402.821 14.8691 401.842 14.4907 400.928C14.1124 400.014 13.5576 399.183 12.8581 398.484C12.1586 397.784 11.3281 397.229 10.414 396.851C9.49994 396.473 8.52028 396.278 7.53101 396.279C6.54145 396.277 5.56133 396.471 4.64685 396.849C3.73236 397.227 2.90148 397.782 2.20185 398.482C1.50222 399.182 0.947586 400.013 0.569749 400.927C0.191912 401.842 -0.00170049 402.822 1.12517e-05 403.812V457.894C1.12517e-05 469.21 9.20701 478.417 20.523 478.417H39.2C39.2 490.726 48.505 498.499 58.509 498.499H87.559C96.407 498.499 103.876 492.515 106.146 484.382C115.407 486.858 89.896 485.878 426.989 485.878C434.751 485.878 441.067 479.562 441.067 471.8V234.55C534.727 196.218 536.137 62.8197 442.314 23.0847L442.313 23.0837ZM91.796 410.791V479.19C91.796 481.49 89.858 483.44 87.558 483.44H58.508C56.211 483.44 54.262 481.49 54.262 479.19V343.274C54.262 340.962 56.211 339.024 58.508 339.024H87.558C89.859 339.024 91.797 340.962 91.797 343.274L91.796 410.791ZM229.413 209.494H286.843V268.588L264.52 251.122C262.694 249.696 260.444 248.921 258.127 248.921C255.81 248.921 253.56 249.696 251.734 251.122L229.414 268.587L229.413 209.494ZM227.683 470.775C108.113 470.818 113.933 471.568 106.858 468.787V359.337C117.979 356.885 127.194 350.1 133.456 337.83C135.12 334.56 147.53 310.174 150.546 304.252C153.042 299.264 167.144 311.873 160.496 324.928L153.226 339.217C148.327 348.85 155.311 360.244 166.12 360.244L260.464 360.213C265.132 360.213 269.12 364.041 269.069 368.498C269.019 372.92 265.37 376.533 260.933 376.557H202.061C200.064 376.557 198.149 377.35 196.736 378.762C195.324 380.174 194.531 382.09 194.531 384.087C194.531 385.076 194.725 386.055 195.104 386.969C195.482 387.883 196.037 388.713 196.736 389.413C197.435 390.112 198.265 390.667 199.179 391.045C200.093 391.424 201.072 391.619 202.061 391.619L289.968 391.611C293.761 391.611 297.718 395.096 298.331 398.479C299.425 403.939 296.221 407.939 290.581 407.939C290.558 407.939 278.901 407.947 201.429 407.947C200.433 407.935 199.444 408.122 198.521 408.495C197.597 408.868 196.757 409.421 196.048 410.121C195.34 410.821 194.778 411.655 194.394 412.575C194.01 413.494 193.812 414.48 193.812 415.476C193.812 416.472 194.01 417.459 194.394 418.378C194.778 419.297 195.34 420.131 196.048 420.831C196.757 421.532 197.597 422.084 198.521 422.458C199.444 422.831 200.433 423.017 201.429 423.006C201.472 423.006 276.901 423.006 276.944 423.01C284.174 423.275 287.37 432.014 282.397 436.955C281.643 437.716 280.745 438.319 279.755 438.73C278.765 439.14 277.703 439.349 276.632 439.345C218.902 439.381 234.917 439.377 194.194 439.377C190.034 439.377 186.664 442.748 186.664 446.908C186.664 451.068 190.034 454.439 194.194 454.439C230.058 454.439 230.257 453.639 233.464 456.826C238.565 461.943 234.94 470.775 227.683 470.775ZM426.003 470.815H382.808V326.022C382.807 324.024 382.013 322.109 380.601 320.697C379.189 319.284 377.273 318.491 375.276 318.49C374.287 318.489 373.307 318.684 372.394 319.063C371.48 319.441 370.649 319.996 369.95 320.695C369.251 321.395 368.696 322.225 368.318 323.139C367.94 324.053 367.745 325.033 367.746 326.022V470.814H249.382C251.468 465.342 251.437 459.588 249.479 454.428L276.632 454.408C293.354 454.408 304.581 437.248 297.929 421.916C314.667 416.736 318.737 395.857 306.644 383.716C298.511 375.584 290.397 376.549 282.636 376.549C288.456 361.217 276.71 345.15 260.464 345.15L167.093 345.182L173.921 331.768C185.374 309.244 165.585 284.408 148.519 288.467V209.494H214.351V278.205C214.351 283.928 219.011 288.584 224.737 288.584C229.377 288.584 228.437 288.471 258.127 265.248C287.413 288.158 286.772 288.584 291.515 288.584C297.245 288.584 301.905 283.928 301.905 278.205V209.495H316.745C331.116 223.865 348.635 233.947 367.745 239.076V295.9C367.744 296.889 367.939 297.868 368.317 298.782C368.695 299.696 369.25 300.527 369.95 301.226C370.649 301.926 371.479 302.481 372.393 302.859C373.307 303.238 374.287 303.432 375.276 303.432C377.273 303.431 379.189 302.637 380.601 301.225C382.013 299.812 382.807 297.897 382.808 295.9V242.068C397.14 243.924 411.913 243.08 426.003 239.51V470.815Z" fill="url(#paint0_linear_115_292)"></path> <path d="M347.973 127.178C347.318 126.437 346.523 125.832 345.634 125.399C344.745 124.965 343.779 124.711 342.792 124.651C341.804 124.592 340.815 124.727 339.88 125.05C338.945 125.373 338.083 125.876 337.343 126.533C336.602 127.188 335.998 127.983 335.564 128.872C335.131 129.761 334.877 130.727 334.817 131.714C334.757 132.702 334.893 133.691 335.216 134.626C335.539 135.561 336.043 136.423 336.699 137.163L367.031 171.408C372.875 178.002 383.161 177.99 388.996 171.439L458.652 93.2637C461.422 90.1617 461.145 85.3998 458.039 82.6338C456.548 81.3049 454.59 80.6226 452.596 80.737C450.602 80.8514 448.735 81.7531 447.406 83.2437L378.027 161.104L347.973 127.178Z" fill="url(#paint1_linear_115_292)"></path> </g> <defs> <linearGradient id="paint0_linear_115_292" x1="160.479" y1="343.613" x2="160.479" y2="14.0037" gradientUnits="userSpaceOnUse"> <stop stop-color="#B50E30"></stop> <stop offset="1" stop-color="#EA1343"></stop> </linearGradient> <linearGradient id="paint1_linear_115_292" x1="374.22" y1="145.782" x2="374.22" y2="80.7253" gradientUnits="userSpaceOnUse"> <stop stop-color="#B50E30"></stop> <stop offset="1" stop-color="#EA1343"></stop> </linearGradient> <clipPath id="clip0_115_292"> <rect width="512" height="512" fill="white"></rect> </clipPath> </defs> </svg> 