<?xml version="1.0" encoding="UTF-8"?> <svg xmlns="http://www.w3.org/2000/svg" width="512" height="512" viewBox="0 0 512 512" fill="none"> <g clip-path="url(#clip0_217_10)"> <mask id="mask0_217_10" style="mask-type:luminance" maskUnits="userSpaceOnUse" x="0" y="0" width="512" height="512"> <path d="M512 0H0V512H512V0Z" fill="white"></path> </mask> <g mask="url(#mask0_217_10)"> <mask id="mask1_217_10" style="mask-type:luminance" maskUnits="userSpaceOnUse" x="0" y="0" width="512" height="512"> <path d="M0 0.00149536H511.999V512H0V0.00149536Z" fill="white"></path> </mask> <g mask="url(#mask1_217_10)"> <path d="M350.643 81.0164H288.694C282.315 81.0164 277.144 75.8454 277.144 69.4664V7.5166M350.643 81.0164L277.144 7.5166M350.643 81.0164V282.321L350.64 282.32C348.663 281.999 346.674 281.758 344.678 281.595L344.577 281.586C343.641 281.511 342.704 281.454 341.766 281.414L341.243 281.394C340.315 281.361 339.385 281.338 338.449 281.338L338.437 281.337M277.144 7.5166L217.555 7.51754M134.55 118.917H289.541M134.55 155.131H289.541M134.55 191.346H289.541M134.55 227.561H289.541M134.55 263.775H289.541M134.55 299.989H288.638M134.55 336.204H265.561M182.555 7.51754H84.9967C78.6178 7.51754 73.4468 12.6885 73.4468 19.0675V399.839C73.4468 406.218 78.6178 411.389 84.9967 411.389H273.077L277.971 402.865C277.669 402.464 277.37 402.059 277.074 401.653L277.02 401.578C276.679 401.107 276.344 400.633 276.013 400.154L275.947 400.058C275.623 399.587 275.304 399.112 274.99 398.633L274.909 398.51C274.601 398.039 274.3 397.564 274.003 397.086L273.909 396.937C273.619 396.467 273.335 395.994 273.054 395.518L272.948 395.337C272.675 394.87 272.406 394.398 272.142 393.924L272.025 393.714C271.768 393.247 271.516 392.778 271.268 392.306L271.143 392.067C270.902 391.604 270.666 391.137 270.435 390.668L270.3 390.396C270.075 389.937 269.857 389.476 269.642 389.012L269.497 388.701C269.289 388.247 269.086 387.789 268.887 387.33L268.736 386.987C268.544 386.537 268.356 386.084 268.172 385.63L268.017 385.251C267.84 384.807 267.668 384.359 267.499 383.911C267.446 383.772 267.392 383.634 267.341 383.494C267.179 383.057 267.021 382.616 266.868 382.175C266.814 382.022 266.759 381.87 266.707 381.718C266.558 381.285 266.417 380.849 266.276 380.414C266.223 380.25 266.169 380.087 266.117 379.923C265.982 379.496 265.854 379.067 265.727 378.637C265.676 378.461 265.622 378.287 265.571 378.11C265.451 377.692 265.338 377.271 265.224 376.85C265.173 376.659 265.119 376.469 265.069 376.277C264.962 375.864 264.861 375.449 264.761 375.033C264.712 374.832 264.661 374.633 264.614 374.432C264.518 374.023 264.429 373.611 264.341 373.2C264.296 372.989 264.247 372.779 264.204 372.567C264.12 372.166 264.045 371.762 263.968 371.358C263.926 371.134 263.88 370.912 263.839 370.687C263.768 370.291 263.704 369.893 263.638 369.495C263.6 369.261 263.558 369.027 263.522 368.792C263.462 368.399 263.408 368.003 263.354 367.608C263.32 367.367 263.283 367.126 263.253 366.884C263.202 366.494 263.16 366.101 263.116 365.71C263.088 365.46 263.055 365.211 263.03 364.96C262.991 364.573 262.959 364.184 262.925 363.795C262.903 363.538 262.877 363.281 262.856 363.023C262.826 362.627 262.804 362.23 262.78 361.832C262.764 361.58 262.745 361.328 262.732 361.076C262.71 360.645 262.697 360.213 262.681 359.781C262.675 359.559 262.662 359.338 262.657 359.115C262.643 358.526 262.635 357.937 262.634 357.349L262.632 357.143C262.632 315.277 296.571 281.337 338.437 281.337M338.437 281.337C373.791 281.337 403.491 305.541 411.875 338.282M338.437 281.337C296.57 281.337 262.631 315.276 262.631 357.143C262.631 399.008 296.57 432.948 338.437 432.948C374.762 432.948 405.104 407.391 412.503 373.281M373.323 350.624C375.143 348.85 374.138 345.757 371.623 345.392L352.188 342.568C351.696 342.496 351.229 342.306 350.826 342.014C350.424 341.721 350.099 341.336 349.879 340.89L341.188 323.28C340.063 321 336.811 321 335.686 323.28L326.995 340.89C326.775 341.336 326.45 341.721 326.047 342.014C325.645 342.306 325.177 342.496 324.685 342.568L305.252 345.392C302.736 345.757 301.731 348.85 303.552 350.624L317.614 364.332C317.97 364.679 318.237 365.107 318.39 365.58C318.544 366.053 318.58 366.556 318.496 367.047L315.177 386.401C314.747 388.907 317.377 390.818 319.628 389.635L337.01 380.497C337.903 380.027 338.97 380.027 339.865 380.497L357.247 389.635C359.497 390.818 362.128 388.907 361.698 386.401L358.378 367.047C358.207 366.052 358.537 365.037 359.26 364.332L373.323 350.624ZM438.217 471.324L398.902 402.864C385.774 420.199 365.365 431.714 342.226 432.853L382.646 503.238C383.658 505 386.244 504.866 387.07 503.01L400.468 472.873C400.682 472.392 401.044 471.991 401.5 471.728C401.957 471.466 402.486 471.355 403.01 471.413L435.791 475.029C437.812 475.253 439.23 473.086 438.217 471.324ZM277.972 402.864L238.656 471.324C237.644 473.086 239.062 475.253 241.082 475.029L273.864 471.413C274.388 471.356 274.916 471.466 275.373 471.728C275.83 471.991 276.192 472.392 276.406 472.873L289.804 503.01C290.629 504.866 293.215 505 294.227 503.238L334.648 432.853C311.508 431.714 291.1 420.198 277.972 402.864Z" stroke="url(#paint0_linear_217_10)" stroke-width="13" stroke-miterlimit="10" stroke-linecap="round" stroke-linejoin="round"></path> </g> </g> </g> <defs> <linearGradient id="paint0_linear_217_10" x1="187.884" y1="345.613" x2="187.884" y2="7.52039" gradientUnits="userSpaceOnUse"> <stop stop-color="#B50E30"></stop> <stop offset="1" stop-color="#EA1343"></stop> </linearGradient> <clipPath id="clip0_217_10"> <rect width="512" height="512" fill="white"></rect> </clipPath> </defs> </svg> 