<?xml version="1.0" encoding="UTF-8"?> <svg xmlns="http://www.w3.org/2000/svg" width="512" height="512" viewBox="0 0 512 512" fill="none"> <g clip-path="url(#clip0_115_369)"> <path d="M503.153 288.622C503.153 275.913 497.673 264.385 488.9 256.369C502.636 249.001 512 234.497 512 217.848C512 193.763 492.405 174.168 468.32 174.168H343.914V93.9962C343.914 61.6552 334.604 38.3312 316.244 24.6692C287.048 2.94719 246.484 14.7642 244.771 15.2792C243.063 15.7915 241.565 16.8409 240.5 18.2718C239.435 19.7026 238.86 21.4386 238.86 23.2222V135.36L157.537 238.861C154.996 227.178 144.58 218.401 132.147 218.401H25.987C11.658 218.402 2.34375e-05 230.059 2.34375e-05 244.389V270.929C2.34375e-05 273.129 0.873853 275.238 2.42928 276.794C3.98471 278.349 6.09432 279.223 8.29402 279.223C10.4937 279.223 12.6033 278.349 14.1588 276.794C15.7142 275.238 16.588 273.129 16.588 270.929V244.389C16.588 239.206 20.805 234.989 25.988 234.989H132.148C137.331 234.989 141.548 239.206 141.548 244.389V474.402C141.548 479.585 137.331 483.802 132.148 483.802H25.987C20.804 483.802 16.587 479.586 16.587 474.402V306.315C16.587 304.115 15.7132 302.006 14.1578 300.45C12.6023 298.895 10.4927 298.021 8.29302 298.021C6.09332 298.021 3.98371 298.895 2.42828 300.45C0.872853 302.006 -0.000976562 304.115 -0.000976562 306.315V474.401C-0.000976562 488.73 11.657 500.388 25.986 500.388H132.146C146.475 500.388 158.133 488.73 158.133 474.401V452.434L199.21 472.973C200.362 473.549 201.631 473.849 202.919 473.849H362.159C364.359 473.849 366.468 472.975 368.024 471.42C369.579 469.864 370.453 467.755 370.453 465.555C370.453 463.355 369.579 461.246 368.024 459.69C366.468 458.135 364.359 457.261 362.159 457.261H204.878L158.133 433.889V264.951L253.674 143.354C254.822 141.893 255.447 140.089 255.447 138.23V29.8122C266.208 27.7772 289.44 25.4032 306.341 37.9762C320.266 48.3372 327.326 67.1842 327.326 93.9952V182.462C327.326 184.662 328.2 186.772 329.755 188.327C331.311 189.882 333.42 190.756 335.62 190.756H468.32C483.26 190.756 495.413 202.91 495.413 217.849C495.413 232.788 483.26 244.942 468.32 244.942H397.547C395.347 244.942 393.238 245.816 391.682 247.371C390.127 248.927 389.253 251.036 389.253 253.236C389.253 255.436 390.127 257.546 391.682 259.101C393.238 260.656 395.347 261.53 397.547 261.53C397.547 261.53 460.877 261.571 461.169 261.59C475.411 262.466 486.567 274.341 486.567 288.623C486.567 303.562 474.414 315.716 459.474 315.716H397.547C395.347 315.716 393.238 316.59 391.682 318.145C390.127 319.701 389.253 321.81 389.253 324.01C389.253 326.21 390.127 328.32 391.682 329.875C393.238 331.43 395.347 332.304 397.547 332.304H452.913C453.268 332.397 453.63 332.476 454.003 332.523C467.524 334.201 477.72 345.753 477.72 359.397C477.72 374.336 465.567 386.49 450.627 386.49H397.547C395.347 386.49 393.238 387.364 391.682 388.919C390.127 390.475 389.253 392.584 389.253 394.784C389.253 396.984 390.127 399.093 391.682 400.649C393.238 402.204 395.347 403.078 397.547 403.078H445.218C445.728 403.286 446.263 403.45 446.824 403.555C459.6 405.958 468.873 417.151 468.873 430.171C468.873 445.11 456.72 457.264 441.78 457.264H397.547C395.347 457.264 393.238 458.138 391.682 459.693C390.127 461.249 389.253 463.358 389.253 465.558C389.253 467.758 390.127 469.867 391.682 471.423C393.238 472.978 395.347 473.852 397.547 473.852H441.78C465.865 473.852 485.46 454.257 485.46 430.172C485.46 417.535 480.038 405.963 471.227 397.909C484.953 390.538 494.307 376.04 494.307 359.398C494.307 346.728 488.853 335.179 480.061 327.142C493.795 319.77 503.153 305.269 503.153 288.622Z" fill="url(#paint0_linear_115_369)"></path> <path d="M96.76 413.028C82.431 413.028 70.773 424.686 70.773 439.015C70.773 453.344 82.431 465.002 96.76 465.002C111.089 465.002 122.747 453.344 122.747 439.015C122.747 424.686 111.09 413.028 96.76 413.028ZM96.76 448.415C91.577 448.415 87.36 444.199 87.36 439.015C87.36 433.831 91.576 429.615 96.76 429.615C101.944 429.615 106.16 433.832 106.16 439.015C106.16 444.198 101.943 448.415 96.76 448.415Z" fill="url(#paint1_linear_115_369)"></path> </g> <defs> <linearGradient id="paint0_linear_115_369" x1="160.478" y1="344.135" x2="160.478" y2="11.6151" gradientUnits="userSpaceOnUse"> <stop stop-color="#B50E30"></stop> <stop offset="1" stop-color="#EA1343"></stop> </linearGradient> <linearGradient id="paint1_linear_115_369" x1="87.0635" y1="448.387" x2="87.0635" y2="413.029" gradientUnits="userSpaceOnUse"> <stop stop-color="#B50E30"></stop> <stop offset="1" stop-color="#EA1343"></stop> </linearGradient> <clipPath id="clip0_115_369"> <rect width="512" height="512" fill="white"></rect> </clipPath> </defs> </svg> 