<?xml version="1.0" encoding="UTF-8"?> <svg xmlns="http://www.w3.org/2000/svg" width="512" height="512" viewBox="0 0 512 512" fill="none"> <g clip-path="url(#clip0_115_296)"> <path d="M507.345 33.69L481.931 5.815C480.258 3.98505 478.223 2.52307 475.955 1.52198C473.687 0.520893 471.235 0.00258601 468.756 0L255.46 0C250.458 0 245.656 2.12 242.284 5.817L216.87 33.69C213.873 36.9724 212.212 41.2579 212.216 45.703V88.411C212.216 92.554 215.574 95.911 219.716 95.911C223.858 95.911 227.216 92.554 227.216 88.411V45.703C227.216 44.996 227.478 44.319 227.955 43.796L253.368 15.924C253.634 15.6334 253.957 15.4012 254.317 15.2421C254.677 15.083 255.066 15.0006 255.46 15H468.756C469.15 15.0005 469.539 15.0828 469.899 15.2417C470.259 15.4006 470.582 15.6326 470.848 15.923L496.261 43.796C496.738 44.319 497 44.996 497 45.703V367.459C497 371.602 500.357 374.959 504.5 374.959C508.643 374.959 512 371.602 512 367.459V45.703C512 41.249 510.347 36.982 507.345 33.69Z" fill="url(#paint0_linear_115_296)"></path> <path d="M504.5 394.96C503.515 394.96 502.54 395.154 501.63 395.531C500.72 395.908 499.893 396.46 499.196 397.156C498.5 397.853 497.948 398.68 497.571 399.59C497.194 400.5 497 401.475 497 402.46V429.56C496.999 430.266 496.735 430.946 496.258 431.467L470.847 459.338C470.582 459.628 470.26 459.86 469.901 460.019C469.541 460.177 469.153 460.26 468.76 460.26H316.11V443.75H448.45C458.099 443.75 465.95 435.899 465.95 426.25V105.75C465.95 96.101 458.099 88.25 448.45 88.25H275.77C266.121 88.25 258.27 96.101 258.27 105.75V311.3H230.187C229.212 310.538 228.224 309.794 227.221 309.069V123.41C227.221 119.267 223.863 115.91 219.721 115.91C215.579 115.91 212.221 119.267 212.221 123.41V300.044C173.737 281.121 120.899 283.967 85.924 311.3H41.82C28.343 311.3 16.807 319.758 9.336 335.116C3.315 347.491 0 363.968 0 381.51L0.003 381.744C0.003 381.763 0 381.781 0 381.8V473.72C0 494.827 17.172 512 38.28 512C47.9775 512.012 57.3156 508.33 64.396 501.704L100.388 468.125C105.539 472.153 112.012 474.563 119.042 474.563C133.188 474.563 145.102 464.835 148.449 451.718H167.659C171.007 464.835 182.921 474.563 197.066 474.563C204.096 474.563 210.57 472.153 215.72 468.125L251.711 501.702C258.792 508.329 268.131 512.012 277.829 512C298.42 512 315.258 495.655 316.07 475.26H468.76C473.762 475.26 478.563 473.14 481.932 469.443L507.343 441.573C510.341 438.291 512.002 434.005 512 429.56V402.46C512 398.317 508.643 394.96 504.5 394.96ZM402.865 305.846C388.438 306.901 375.538 312.8 367.795 320.304C364.77 319.566 361.631 319.424 358.552 319.885C357.603 311.275 359.962 298.86 367.833 288.343C381.614 289.756 393.913 296.223 402.865 305.846ZM321.304 381.639C336.032 380.613 348.804 374.543 356.415 367.162C359.373 367.881 362.484 368.056 365.667 367.582C366.616 376.193 364.258 388.607 356.389 399.117C342.854 397.744 330.46 391.532 321.304 381.639ZM371.221 343.733C371.221 348.758 367.133 352.846 362.108 352.846C357.122 352.846 352.995 348.792 352.995 343.733C352.995 338.708 357.083 334.62 362.108 334.62C367.127 334.62 371.221 338.71 371.221 343.733ZM379.556 360.35C381.7 358.102 383.39 355.463 384.534 352.575C392.459 356.048 402.024 364.283 407.201 376.34C399.408 387.086 387.878 394.943 374.531 397.997C380.846 384.958 382.186 370.815 379.556 360.35ZM385.238 336.933C384.359 333.952 382.91 331.17 380.972 328.741C387.947 323.606 399.875 319.432 412.915 320.99C416.133 328.14 417.795 335.891 417.791 343.732C417.791 349.437 416.925 354.943 415.324 360.128C407.192 348.135 395.619 339.89 385.238 336.933ZM344.656 327.119C342.512 329.367 340.822 332.007 339.679 334.895C331.737 331.413 322.146 323.147 316.98 311.042C324.9 300.099 336.536 292.419 349.711 289.438C343.382 302.487 342.025 316.647 344.656 327.119ZM308.881 327.319C317.013 339.325 328.593 347.58 338.978 350.538C339.855 353.508 341.298 356.281 343.226 358.705C336.982 363.248 326.707 367.115 315.268 366.759C314.001 355.653 311.28 344.884 307.006 335.833C307.409 332.951 308.036 330.104 308.881 327.319ZM273.27 105.75C273.27 104.371 274.391 103.25 275.77 103.25H448.45C449.829 103.25 450.95 104.371 450.95 105.75V426.25C450.95 427.629 449.829 428.75 448.45 428.75H316.11V397.434C328.727 408.281 344.897 414.41 362.11 414.41C401.063 414.41 432.79 382.664 432.79 343.73C432.79 331.438 429.393 319.261 424.423 310.41C411.725 287.802 388.368 273.049 362.111 273.049C331.642 273.049 305.439 292.235 295.596 319.731C289.795 314.449 282.721 311.299 274.291 311.299H273.27V105.75ZM208.816 315.227C208.027 315.831 207.289 316.499 206.609 317.223L195.812 328.919C194.701 330.117 193.355 331.073 191.857 331.727C190.36 332.381 188.744 332.719 187.11 332.72H129C125.702 332.72 122.53 331.334 120.301 328.923L109.497 317.218C108.818 316.496 108.082 315.83 107.295 315.227C137.742 298.876 178.283 298.828 208.816 315.227ZM41.82 326.3H95.97C96.92 326.3 97.836 326.701 98.479 327.397L109.282 339.101C111.799 341.816 114.85 343.983 118.242 345.466C121.635 346.949 125.297 347.716 129 347.72H187.11C190.813 347.716 194.476 346.949 197.87 345.465C201.263 343.981 204.314 341.813 206.831 339.097L217.628 327.401C217.947 327.052 218.335 326.774 218.768 326.585C219.2 326.395 219.668 326.298 220.14 326.3H274.29C291.71 326.3 301.11 354.745 301.11 381.51C301.11 396.603 298.257 411.12 293.285 421.342C288.321 431.546 281.931 436.719 274.29 436.719H226.473C223.126 423.6 211.212 413.869 197.068 413.869C182.922 413.869 171.008 423.599 167.66 436.718H148.45C145.103 423.599 133.188 413.869 119.042 413.869C104.897 413.869 92.984 423.6 89.637 436.719H41.82C24.4 436.719 15 408.274 15 381.51C15 354.746 24.4 326.3 41.82 326.3ZM54.162 490.737C49.8563 494.767 44.1775 497.006 38.28 497C25.443 497 15 486.557 15 473.72V437.143C21.619 446.057 30.5 451.719 41.82 451.719H89.638C90.0309 453.254 90.5441 454.755 91.173 456.209L54.162 490.737ZM119.042 459.562C110.581 459.562 103.697 452.678 103.697 444.217C103.697 435.754 110.581 428.868 119.042 428.868C127.504 428.868 134.389 435.754 134.389 444.217C134.39 452.679 127.505 459.562 119.042 459.562ZM197.067 459.562C188.605 459.562 181.72 452.678 181.72 444.217C181.72 435.754 188.605 428.868 197.067 428.868C205.528 428.868 212.412 435.754 212.412 444.217C212.412 452.679 205.528 459.562 197.067 459.562ZM301.11 473.72C301.11 486.557 290.667 497 277.83 497C271.931 497.006 266.252 494.766 261.946 490.735L224.937 456.208C225.566 454.754 226.079 453.253 226.472 451.719H274.29C285.61 451.719 294.491 446.057 301.11 437.143V473.72Z" fill="url(#paint1_linear_115_296)"></path> <path d="M291.429 188.273C291.429 201 295.114 213.407 299.839 221.674C312.754 244.274 336.077 258.95 362.11 258.95C401.067 258.95 432.788 227.203 432.788 188.272C432.788 175.838 429.279 163.508 424.393 154.898C411.45 132.09 388.078 117.591 362.108 117.591C323.037 117.593 291.429 149.463 291.429 188.273ZM338.978 195.078C339.858 198.058 341.306 200.839 343.244 203.268C336.267 208.397 324.34 212.566 311.304 211.012C308.086 203.863 306.425 196.112 306.429 188.273C306.429 182.569 307.294 177.065 308.895 171.879C317.026 183.875 328.598 192.122 338.978 195.078ZM412.91 165.528C416.129 172.678 417.791 180.431 417.787 188.273C417.787 193.976 416.922 199.48 415.322 204.665C407.191 192.674 395.619 184.429 385.238 181.473C384.358 178.492 382.91 175.71 380.972 173.28C387.947 168.147 399.873 163.976 412.91 165.528ZM371.221 188.273C371.221 193.298 367.133 197.386 362.108 197.386C357.124 197.386 352.995 193.333 352.995 188.273C352.995 183.248 357.083 179.159 362.108 179.159C367.079 179.159 371.221 183.2 371.221 188.273ZM321.339 226.14C335.768 225.085 348.666 219.2 356.413 211.702C359.377 212.422 362.488 212.595 365.666 212.122C366.615 220.733 364.257 233.148 356.387 243.659C342.599 242.245 330.292 235.771 321.339 226.14ZM374.531 242.537C380.847 229.499 382.186 215.355 379.556 204.89C381.7 202.642 383.39 200.002 384.534 197.115C392.459 200.588 402.024 208.823 407.2 220.879C399.408 231.625 387.878 239.482 374.531 242.537ZM402.859 150.387C388.434 151.443 375.538 157.341 367.795 164.843C364.77 164.105 361.631 163.962 358.551 164.423C357.603 155.814 359.961 143.401 367.83 132.885C381.61 134.299 393.908 140.765 402.859 150.387ZM349.699 134.004C343.381 147.046 342.027 161.193 344.657 171.658C342.513 173.906 340.824 176.546 339.68 179.434C331.757 175.96 322.193 167.723 317.018 155.664C324.812 144.915 336.347 137.056 349.699 134.004ZM360.642 59.1269C364.785 59.1269 368.142 55.7699 368.142 51.6269C368.142 47.4839 364.785 44.1269 360.642 44.1269H358.319C354.176 44.1269 350.819 47.4839 350.819 51.6269C350.819 55.7699 354.176 59.1269 358.319 59.1269H360.642ZM399.058 59.1269C403.201 59.1269 406.558 55.7699 406.558 51.6269C406.558 47.4839 403.201 44.1269 399.058 44.1269H396.735C392.592 44.1269 389.235 47.4839 389.235 51.6269C389.235 55.7699 392.592 59.1269 396.735 59.1269H399.058ZM437.474 59.1269C441.617 59.1269 444.974 55.7699 444.974 51.6269C444.974 47.4839 441.617 44.1269 437.474 44.1269H435.151C431.008 44.1269 427.651 47.4839 427.651 51.6269C427.651 55.7699 431.008 59.1269 435.151 59.1269H437.474ZM325.736 51.6269C325.736 38.8089 315.307 28.3799 302.489 28.3799C289.671 28.3799 279.242 38.8089 279.242 51.6269C279.242 64.4449 289.671 74.8739 302.489 74.8739C315.307 74.8739 325.736 64.4449 325.736 51.6269ZM294.242 51.6269C294.242 47.0789 297.941 43.3799 302.489 43.3799C307.037 43.3799 310.736 47.0789 310.736 51.6269C310.736 56.1749 307.037 59.8739 302.489 59.8739C297.941 59.8739 294.242 56.1749 294.242 51.6269ZM45.3291 389.009H57.5401V401.22C57.5401 405.363 60.8981 408.72 65.0401 408.72C69.1821 408.72 72.5401 405.363 72.5401 401.22V389.009H84.7501C88.8921 389.009 92.2501 385.652 92.2501 381.509C92.2501 377.366 88.8921 374.009 84.7501 374.009H72.5401V361.799C72.5401 357.656 69.1821 354.299 65.0401 354.299C60.8981 354.299 57.5401 357.656 57.5401 361.799V374.009H45.3291C41.1871 374.009 37.8291 377.366 37.8291 381.509C37.8291 385.652 41.1871 389.009 45.3291 389.009ZM226.348 389.009H238.559V401.22C238.559 405.363 241.917 408.72 246.059 408.72C250.201 408.72 253.559 405.363 253.559 401.22V389.009H265.769C269.911 389.009 273.269 385.652 273.269 381.509C273.269 377.366 269.911 374.009 265.769 374.009H253.559V361.799C253.559 357.656 250.201 354.299 246.059 354.299C241.917 354.299 238.559 357.656 238.559 361.799V374.009H226.348C222.206 374.009 218.848 377.366 218.848 381.509C218.848 385.652 222.206 389.009 226.348 389.009Z" fill="url(#paint2_linear_115_296)"></path> </g> <defs> <linearGradient id="paint0_linear_115_296" x1="306.179" y1="255.091" x2="306.179" y2="0.00285844" gradientUnits="userSpaceOnUse"> <stop stop-color="#B50E30"></stop> <stop offset="1" stop-color="#EA1343"></stop> </linearGradient> <linearGradient id="paint1_linear_115_296" x1="160.479" y1="376.535" x2="160.479" y2="88.2532" gradientUnits="userSpaceOnUse"> <stop stop-color="#B50E30"></stop> <stop offset="1" stop-color="#EA1343"></stop> </linearGradient> <linearGradient id="paint2_linear_115_296" x1="165.443" y1="287.132" x2="165.443" y2="28.3828" gradientUnits="userSpaceOnUse"> <stop stop-color="#B50E30"></stop> <stop offset="1" stop-color="#EA1343"></stop> </linearGradient> <clipPath id="clip0_115_296"> <rect width="512" height="512" fill="white"></rect> </clipPath> </defs> </svg> 