<?xml version="1.0" encoding="UTF-8"?> <svg xmlns="http://www.w3.org/2000/svg" width="512" height="512" viewBox="0 0 512 512" fill="none"> <path d="M263.305 448.77L271.384 424.249M167.179 258.187L191.671 266.267M242.527 170.648L254.178 193.695M378.508 440.152L366.886 417.105M175.768 373.393L198.815 361.77M283.884 113.416C312.317 109.476 342.025 111.8 371.109 121.382C472.904 154.917 528.237 264.596 494.701 366.364C461.196 468.133 351.521 523.468 249.726 489.961C147.96 456.453 92.6267 346.747 126.161 244.978C146.175 184.173 193.4 139.949 249.867 121.325M334.257 113.076L349.735 66.1601M421.142 89.688L405.693 136.604M385.877 25.1122L348.544 12.8082C342.762 10.9102 336.468 14.0852 334.569 19.8672L325.753 46.6281C323.854 52.4111 327 58.7041 332.783 60.6031L438.065 95.273C443.848 97.173 450.141 93.998 452.04 88.215L460.856 61.4541C462.755 55.6711 459.58 49.3781 453.797 47.4781L417.881 35.6572M100.763 138.022H7.49994M212.761 138.022H150.739M107.991 190.522H37.4909M60.2538 295.494H7.49994M118.225 347.994H31.7379M90.2447 400.495H53.5078M178.574 452.995H97.7577M454.138 352.701L334.229 313.212M454.138 352.701L454.053 352.984C427.917 432.301 342.45 475.418 263.134 449.282C183.819 423.173 140.704 337.705 166.811 258.388C192.947 179.07 278.414 135.924 357.729 162.061M454.138 352.701C480.076 273.468 436.959 188.142 357.729 162.061M357.729 162.061L318.327 281.689M235.609 239.622L290.064 289.259M313.62 330.447L316.908 358.596M127.38 243.022H69.0988M318.326 281.688C331.423 285.997 338.537 300.114 334.228 313.21C329.92 326.308 315.803 333.423 302.707 329.114C289.61 324.805 282.495 310.688 286.804 297.591C291.112 284.495 305.229 277.379 318.326 281.688Z" stroke="url(#paint0_linear_115_333)" stroke-width="15" stroke-miterlimit="10" stroke-linecap="round" stroke-linejoin="round"></path> <defs> <linearGradient id="paint0_linear_115_333" x1="163.277" y1="343.904" x2="163.277" y2="12.262" gradientUnits="userSpaceOnUse"> <stop stop-color="#B50E30"></stop> <stop offset="1" stop-color="#EA1343"></stop> </linearGradient> </defs> </svg> 